#N canvas 4 55 624 377 10;
#X obj 320 106 inlet sendprefix;
#X obj 353 154 f \$1;
#X obj 400 154 f \$2;
#X obj 320 128 t s b b;
#X obj 320 181 pack s f f;
#X msg 320 203 symbol \$1_\$2_\$3;
#X obj 221 168 valuescale 0;
#X obj 162 32 pgmin 1;
#X obj 162 106 == \$1;
#X obj 221 138 spigot;
#X obj 195 61 loadbang;
#X msg 195 83 1;
#X obj 221 106 ctlin \$2 \$3;
#X obj 221 232 send \$4;
#X obj 58 276 oscparse;
#X obj 135 277 oscparse;
#X obj 383 304 makefilename /knob8/r%s;
#X obj 381 270 f \$5;
#X obj 383 326 print;
#X obj 384 244 bng 15 250 50 0 empty empty empty 17 7 0 10 -262144
-1 -1;
#X connect 0 0 3 0;
#X connect 1 0 4 1;
#X connect 2 0 4 2;
#X connect 3 0 4 0;
#X connect 3 1 1 0;
#X connect 3 2 2 0;
#X connect 4 0 5 0;
#X connect 6 0 13 0;
#X connect 7 0 8 0;
#X connect 8 0 9 1;
#X connect 9 0 6 0;
#X connect 10 0 11 0;
#X connect 11 0 8 0;
#X connect 12 0 9 0;
#X connect 16 0 18 0;
#X connect 17 0 16 0;
#X connect 19 0 17 0;
