#N canvas 4 55 793 585 12;
#X obj 401 248 valuescale 0;
#X obj 222 58 pgmin 1;
#X obj 222 106 == \$1;
#X obj 401 218 spigot;
#X obj 8 32 loadbang;
#X msg 189 83 1;
#X obj 401 186 ctlin \$2 \$3;
#X obj 401 312 send \$4;
#X obj 20 200 makefilename /knob8/r%s;
#X obj 8 84 f \$5;
#X msg 20 222 set \$1;
#X msg 20 303 set \$1;
#X msg 8 395 set \$1;
#X obj 8 373 makefilename /knob8/l%s;
#X obj 20 281 makefilename /knob8/r%sv;
#X obj 222 148 sel 1;
#X obj 275 360 f 0;
#X obj 222 190 t b b b;
#X obj 248 260 f 0;
#X obj 222 230 symbol \$4;
#X obj 248 290 oscformat;
#X obj 275 390 oscformat;
#X obj 222 453 oscformat;
#X obj 222 493 s osc-out;
#X obj 401 273 / 127;
#X connect 0 0 16 0;
#X connect 0 0 24 0;
#X connect 1 0 2 0;
#X connect 2 0 3 1;
#X connect 2 0 15 0;
#X connect 3 0 0 0;
#X connect 3 0 18 0;
#X connect 4 0 5 0;
#X connect 4 0 9 0;
#X connect 5 0 2 0;
#X connect 6 0 3 0;
#X connect 8 0 10 0;
#X connect 9 0 8 0;
#X connect 9 0 13 0;
#X connect 9 0 14 0;
#X connect 10 0 20 0;
#X connect 11 0 21 0;
#X connect 12 0 22 0;
#X connect 13 0 12 0;
#X connect 14 0 11 0;
#X connect 15 0 17 0;
#X connect 16 0 21 0;
#X connect 17 0 19 0;
#X connect 17 1 18 0;
#X connect 17 2 16 0;
#X connect 18 0 20 0;
#X connect 19 0 22 0;
#X connect 20 0 23 0;
#X connect 21 0 23 0;
#X connect 22 0 23 0;
#X connect 24 0 7 0;
