#N canvas 516 466 450 300 10;
#X obj 34 30 ctlin \$1 \$2;
#X obj 34 52 valuescale 64;
#X obj 133 30 inlet sendprefix;
#X obj 34 156 send;
#X obj 166 78 f \$1;
#X obj 213 78 f \$2;
#X obj 133 52 t s b b;
#X obj 133 105 pack s f f;
#X msg 133 127 symbol \$1_\$2_\$3;
#X connect 0 0 1 0;
#X connect 1 0 3 0;
#X connect 2 0 6 0;
#X connect 4 0 7 1;
#X connect 5 0 7 2;
#X connect 6 0 7 0;
#X connect 6 1 4 0;
#X connect 6 2 5 0;
#X connect 7 0 8 0;
#X connect 8 0 3 1;
