#N canvas 95 101 1141 651 10;
#X obj 6 7 inlet midi;
#X obj 6 99 unpack 0 0;
#X obj 6 121 mtof;
#X obj 6 143 mikivco, f 23;
#X obj 25 502 outlet~;
#X obj 227 195 mikiadsr, f 28;
#X obj 844 7 inlet pwm;
#X obj 844 29 / 127;
#X obj 56 296 *~;
#X obj 568 29 / 127;
#X obj 568 7 inlet sawlvl;
#X obj 659 7 inlet sinelvl;
#X obj 757 7 inlet sqlvl;
#X obj 659 29 / 127;
#X obj 757 29 / 127;
#X obj 916 7 inlet noiselvl;
#X obj 916 29 / 127;
#X obj 57 247 *~;
#X obj 6 195 *~;
#X obj 163 247 *~;
#X obj 112 195 *~;
#X obj 249 328 mikibob;
#X obj 139 328 mikivcf;
#X obj 1025 7 inlet vcffreq;
#X obj 1025 29 / 127;
#X obj 1127 7 inlet vcfq;
#X obj 1127 29 / 127;
#X obj 1206 7 inlet vcflvl;
#X obj 1206 29 / 127;
#X obj 1303 29 / 127;
#X obj 1405 29 / 127;
#X obj 1484 29 / 127;
#X obj 1303 7 inlet bobfreq;
#X obj 1405 7 inlet bobq;
#X obj 1484 7 inlet boblvl;
#X obj 568 51 s \$0-sawlvl;
#X obj 659 51 s \$0-sinelvl;
#X obj 757 51 s \$0-sqlvl;
#X obj 844 51 s \$0-pwm;
#X obj 916 51 s \$0-noiselvl;
#X obj 1025 51 s \$0-vcffreq;
#X obj 1127 51 s \$0-vcfq;
#X obj 1206 51 s \$0-vcflvl;
#X obj 1303 50 s \$0-bobfreq;
#X obj 1405 51 s \$0-bobq;
#X obj 1484 51 s \$0-boblvl;
#X obj 139 451 *~;
#X obj 157 430 r \$0-vcflvl;
#X obj 249 451 *~;
#X obj 267 430 r \$0-boblvl;
#X obj 26 452 *~;
#X obj 44 430 r \$0-drylvl;
#X obj 24 174 r \$0-sawlvl;
#X obj 164 122 r \$0-pwm;
#X obj 130 173 r \$0-sqlvl;
#X obj 181 226 r \$0-noiselvl;
#X obj 75 226 r \$0-sinelvl;
#X obj 165 284 r \$0-vcffreq;
#X obj 192 305 r \$0-vcfq;
#X obj 275 284 r \$0-bobfreq;
#X obj 302 306 r \$0-bobq;
#X obj 265 148 r \$0-attack;
#X obj 304 171 r \$0-decay;
#X obj 349 148 r \$0-sustain;
#X obj 381 171 r \$0-release;
#X obj 440 148 r \$0-slow;
#X obj 86 7 inlet attack;
#X obj 86 29 / 127;
#X obj 86 51 s \$0-attack;
#X obj 188 7 inlet decay;
#X obj 188 29 / 127;
#X obj 188 51 s \$0-decay;
#X obj 275 7 inlet sustain;
#X obj 275 29 / 127;
#X obj 275 51 s \$0-sustain;
#X obj 386 7 inlet release;
#X obj 386 29 / 127;
#X obj 386 51 s \$0-release;
#X obj 489 7 inlet slow;
#X obj 489 29 / 127;
#X obj 489 51 s \$0-slow;
#X obj 1577 7 inlet \$0-drylvl;
#X obj 1577 29 / 127;
#X obj 1577 51 s \$0-drylvl;
#X connect 0 0 1 0;
#X connect 1 0 2 0;
#X connect 1 1 5 0;
#X connect 2 0 3 0;
#X connect 3 0 18 0;
#X connect 3 1 17 0;
#X connect 3 2 20 0;
#X connect 3 3 19 0;
#X connect 5 0 8 1;
#X connect 6 0 7 0;
#X connect 7 0 38 0;
#X connect 8 0 50 0;
#X connect 8 0 22 0;
#X connect 8 0 21 0;
#X connect 9 0 35 0;
#X connect 10 0 9 0;
#X connect 11 0 13 0;
#X connect 12 0 14 0;
#X connect 13 0 36 0;
#X connect 14 0 37 0;
#X connect 15 0 16 0;
#X connect 16 0 39 0;
#X connect 17 0 8 0;
#X connect 18 0 8 0;
#X connect 19 0 8 0;
#X connect 20 0 8 0;
#X connect 21 0 48 0;
#X connect 22 0 46 0;
#X connect 23 0 24 0;
#X connect 24 0 40 0;
#X connect 25 0 26 0;
#X connect 26 0 41 0;
#X connect 27 0 28 0;
#X connect 28 0 42 0;
#X connect 29 0 43 0;
#X connect 30 0 44 0;
#X connect 31 0 45 0;
#X connect 32 0 29 0;
#X connect 33 0 30 0;
#X connect 34 0 31 0;
#X connect 46 0 4 0;
#X connect 47 0 46 1;
#X connect 48 0 4 0;
#X connect 49 0 48 1;
#X connect 50 0 4 0;
#X connect 51 0 50 1;
#X connect 52 0 18 1;
#X connect 53 0 3 1;
#X connect 54 0 20 1;
#X connect 55 0 19 1;
#X connect 56 0 17 1;
#X connect 57 0 22 1;
#X connect 58 0 22 2;
#X connect 59 0 21 1;
#X connect 60 0 21 2;
#X connect 61 0 5 1;
#X connect 62 0 5 2;
#X connect 63 0 5 3;
#X connect 64 0 5 4;
#X connect 65 0 5 5;
#X connect 66 0 67 0;
#X connect 67 0 68 0;
#X connect 69 0 70 0;
#X connect 70 0 71 0;
#X connect 72 0 73 0;
#X connect 73 0 74 0;
#X connect 75 0 76 0;
#X connect 76 0 77 0;
#X connect 78 0 79 0;
#X connect 79 0 80 0;
#X connect 81 0 82 0;
#X connect 82 0 83 0;
