#N canvas 10 161 693 528 10;
#X obj 10 10 cnv 15 430 180 empty empty oscillator 20 12 0 14 -204786
-66577 0;
#X obj 23 42 hsl 128 15 0 1 0 0 \$1-osc-sub-amt-s \$1-osc-sub-amt osc_sub_amt
-2 -8 0 10 -262144 -1 -1 0 1;
#X obj 23 72 hsl 128 15 0 1 0 0 \$1-osc-saw-amt-s \$1-osc-saw-amt osc_saw_amt
-2 -8 0 10 -262144 -1 -1 0 1;
#X obj 23 102 hsl 128 15 0 1 0 0 \$1-osc-sq-amt-s \$1-osc-sq-amt osc_sq_amt
-2 -8 0 10 -262144 -1 -1 0 1;
#X obj 23 132 hsl 128 15 0 1 0 0 \$1-osc-tri-amt-s \$1-osc-tri-amt
osc_tri_amt -2 -8 0 10 -262144 -1 -1 12700 1;
#X obj 23 162 hsl 128 15 0 1 0 0 \$1-osc-noise-amt-s \$1-osc-noise-amt
osc_noise_amt -2 -8 0 10 -262144 -1 -1 0 1;
#X obj 163 102 hsl 128 15 0 1 0 0 \$1-osc-sq-pw-s \$1-osc-sq-pw osc_sq_pw
-2 -8 0 10 -262144 -1 -1 8400 1;
#X obj 163 72 hsl 128 15 0 1 0 0 \$1-osc-ultrasaw-amt-s \$1-osc-ultrasaw-amt
osc_ultrasaw_amt -2 -8 0 10 -262144 -1 -1 0 1;
#X obj 161 42 hradio 15 1 0 2 \$1-osc-sub-type-s \$1-osc-sub-type osc_sub_sq/sin
0 -8 0 10 -262144 -1 -1 1;
#X obj 251 42 hradio 15 1 0 2 \$1-osc-sub-oct-s \$1-osc-sub-oct osc_sub_oct
0 -8 0 10 -262144 -1 -1 0;
#X obj 303 72 hsl 128 15 0 1 0 0 \$1-osc-ultrasaw-rate-s \$1-osc-ultrasaw-rate
osc_ultrasaw_rate -2 -8 0 10 -262144 -1 -1 0 1;
#X obj 303 102 hsl 128 15 0 1 0 0 \$1-osc-sq-pw-env-amt-s \$1-osc-sq-pw-env-amt
osc_sq_pw_env_amt -2 -8 0 10 -262144 -1 -1 0 1;
#X obj 163 132 hsl 128 15 0 1 0 0 \$1-osc-metalizer-amt-s \$1-osc-metalizer-amt
osc_metalizer_amt -2 -8 0 10 -262144 -1 -1 0 1;
#X obj 304 132 hsl 128 15 0 1 0 0 empty empty osc_metalizer_env_amt
-2 -8 0 10 -262144 -1 -1 0 1;
#X obj 10 191 cnv 15 430 150 empty empty filter 20 12 0 14 -261682
-66577 0;
#X obj 23 222 hsl 128 15 0 1 0 0 \$1-f-env-atk-s \$1-f-env-atk f_env_atk
-2 -8 0 10 -262144 -1 -1 600 1;
#X obj 23 252 hsl 128 15 0 1 0 0 \$1-f-env-dcy-s \$1-f-env-dcy f_env_dcy
-2 -8 0 10 -262144 -1 -1 600 1;
#X obj 23 282 hsl 128 15 0 1 0 0 \$1-f-env-sus-s \$1-f-env-sus f_env_sus
-2 -8 0 10 -262144 -1 -1 600 1;
#X obj 23 312 hsl 128 15 0 1 0 0 \$1-f-env-rel-s \$1-f-env-rel f_env_rel
-2 -8 0 10 -262144 -1 -1 600 1;
#X obj 163 222 hsl 128 15 0 1 0 0 \$1-f-freq-s \$1-f-freq f_freq -2
-8 0 10 -262144 -1 -1 9600 1;
#X obj 163 252 hsl 128 15 0 1 0 0 \$1-f-res-s \$1-f-res f_res -2 -8
0 10 -262144 -1 -1 7100 1;
#X obj 163 282 hsl 128 15 0 1 0 0 \$1-f-env-amt-s \$1-f-env-amt f_env_amt
-2 -8 0 10 -262144 -1 -1 9400 1;
#X obj 163 312 hsl 128 15 0 1 0 0 \$1-f-key-trk-s \$1-f-key-trk f_key_trk
-2 -8 0 10 -262144 -1 -1 0 1;
#X obj 301 222 hradio 15 1 0 2 \$1-f-type-s empty f_type_lp/ntch 0
-8 0 10 -262144 -1 -1 0;
#X obj 301 252 hradio 15 1 0 2 \$1-f-env-spd-s empty f_env_fst/slw
0 -8 0 10 -262144 -1 -1 0;
#X obj 10 342 cnv 15 150 150 empty empty vca 20 12 0 14 -232576 -66577
0;
#X obj 161 342 cnv 15 280 150 empty empty lfo 20 12 0 14 -204800 -66577
0;
#X obj 23 372 hsl 128 15 0 1 0 0 \$1-vca-env-atk-s \$1-vca-env-atk
vca_env_atk -2 -8 0 10 -262144 -1 -1 470 1;
#X obj 23 402 hsl 128 15 0 1 0 0 \$1-vca-env-dcy-s \$1-vca-env-dcy
vca_env_dcy -2 -8 0 10 -262144 -1 -1 470 1;
#X obj 23 432 hsl 128 15 0 1 0 0 \$1-vca-env-sus-s \$1-vca-env-sus
vca_env_sus -2 -8 0 10 -262144 -1 -1 12700 1;
#X obj 23 462 hsl 128 15 0 1 0 0 \$1-vca-env-rel-s \$1-vca-env-rel
vca_env_rel -2 -8 0 10 -262144 -1 -1 8100 1;
#X obj 168 372 hsl 128 15 0 1 0 0 \$1-lfo-rate-s \$1-lfo-rate lfo_rate
-2 -8 0 10 -262144 -1 -1 0 1;
#X obj 168 402 hsl 128 15 0 1 0 0 \$1-lfo-wave-s \$1-lfo-wave lfo_wave
-2 -8 0 10 -262144 -1 -1 0 1;
#X obj 168 432 hsl 128 15 0 1 0 0 \$1-lfo-pwm-metalizer-amt-s \$1-lfo-pwm-metalizer-amt
lfo_pwm_metalizer_amt -2 -8 0 10 -262144 -1 -1 0 1;
#X obj 168 462 hsl 128 15 0 1 0 0 \$1-lfo-vca-amt-s \$1-lfo-vca-amt
lfo_vca_amt -2 -8 0 10 -262144 -1 -1 0 1;
#X obj 450 10 inlet notes;
#X obj 450 32 unpack f f;
#X obj 450 54 poly 1 1;
#X obj 450 76 pack 0 0 0;
#X obj 450 98 route 1;
#X obj 450 120 unpack 0 0;
#X obj 450 186 mtof;
#X obj 534 76 r \$1-osc-sub-oct-s;
#X obj 534 98 f 0;
#X obj 534 120 + 1;
#X obj 534 142 * 12;
#X obj 450 142 t f f, f 6;
#X obj 489 164 - 12;
#X obj 489 186 mtof;
#N canvas 78 197 654 538 vco 0;
#X obj 13 19 inlet freq;
#X obj 372 69 inlet sub_freq;
#X obj 12 349 outlet~;
#X obj 471 120 osc~;
#X obj 411 92 r \$1-osc-sq-pw-s;
#X obj 372 119 sqosc~;
#X obj 372 205 *~;
#X obj 489 142 r \$1-osc-sub-type-s;
#X obj 471 206 *~;
#X obj 390 185 tgl 15 0 empty empty empty 17 7 0 10 -262144 -1 -1 0
1;
#X obj 489 186 tgl 15 0 empty empty empty 17 7 0 10 -262144 -1 -1 1
1;
#X obj 390 164 invert;
#X obj 13 41 sawosc~;
#X obj 125 173 triosc~;
#X obj 181 225 noise~;
#X obj 52 67 r \$1-osc-saw-amt-s;
#X obj 108 94 r \$1-osc-sq-pw-s;
#X obj 108 146 r \$1-osc-sq-amt-s;
#X obj 164 200 r \$1-osc-tri-amt-s;
#X obj 220 246 r \$1-osc-noise-amt-s;
#X obj 411 227 r \$1-osc-sub-amt-s;
#X obj 69 121 sqosc~;
#X obj 13 93 *~;
#X obj 69 173 *~;
#X obj 125 225 *~;
#X obj 181 267 *~;
#X obj 372 248 *~;
#X connect 0 0 12 0;
#X connect 0 0 13 0;
#X connect 0 0 21 0;
#X connect 1 0 3 0;
#X connect 1 0 5 0;
#X connect 3 0 8 0;
#X connect 4 0 5 1;
#X connect 5 0 6 0;
#X connect 6 0 26 0;
#X connect 7 0 11 0;
#X connect 7 0 10 0;
#X connect 8 0 26 0;
#X connect 9 0 6 1;
#X connect 10 0 8 1;
#X connect 11 0 9 0;
#X connect 12 0 22 0;
#X connect 13 0 24 0;
#X connect 14 0 25 0;
#X connect 15 0 22 1;
#X connect 16 0 21 1;
#X connect 17 0 23 1;
#X connect 18 0 24 1;
#X connect 19 0 25 1;
#X connect 20 0 26 1;
#X connect 21 0 23 0;
#X connect 22 0 2 0;
#X connect 23 0 2 0;
#X connect 24 0 2 0;
#X connect 25 0 2 0;
#X connect 26 0 2 0;
#X restore 450 208 pd vco;
#N canvas 586 220 450 300 vca 0;
#X obj 22 22 inlet~;
#X obj 22 247 outlet~;
#X obj 177 23 inlet trigger;
#X obj 177 150 mikiadsr;
#X obj 22 199 *~;
#X obj 187 65 r \$1-vca-env-atk-s;
#X obj 198 85 r \$1-vca-env-dcy-s;
#X obj 208 105 r \$1-vca-env-sus-s;
#X obj 219 125 r \$1-vca-env-rel-s;
#X connect 0 0 4 0;
#X connect 2 0 3 0;
#X connect 3 0 4 1;
#X connect 4 0 1 0;
#X connect 5 0 3 1;
#X connect 6 0 3 2;
#X connect 7 0 3 3;
#X connect 8 0 3 4;
#X restore 450 230 pd vca;
#N canvas 622 303 651 428 vcf 1;
#X obj 26 34 inlet~;
#X obj 26 280 outlet~;
#X obj 378 35 inlet trigger;
#X obj 378 156 mikiadsr;
#X obj 387 55 r \$1-f-env-atk-s;
#X obj 396 75 r \$1-f-env-dcy-s;
#X obj 405 95 r \$1-f-env-sus-s;
#X obj 414 115 r \$1-f-env-rel-s;
#X obj 423 135 r \$1-f-env-spd-s;
#X obj 47 192 r \$1-f-res-s;
#X obj 26 258 bob~;
#X obj 36 124 sig~ 1;
#X obj 75 34 r \$1-f-freq-s;
#X obj 75 56 * 127;
#X obj 75 78 mtof;
#X obj 36 146 *~ 2000;
#X obj 36 168 +~ 100;
#X obj 47 214 * 4;
#X obj 47 236 sig~ 3;
#X floatatom 326 75 5 0 0 0 - - -, f 5;
#X obj 378 244 *~;
#X obj 393 178 r \$1-f-env-amt-s;
#X obj 393 200 - 0.5;
#X obj 378 291 metro 20;
#X obj 378 313 snapshot~;
#X floatatom 378 335 5 0 0 0 - - -, f 5;
#X obj 378 271 tgl 15 0 empty empty empty 17 7 0 10 -262144 -1 -1 1
1;
#X obj 393 222 * 5;
#X floatatom 85 100 5 0 0 0 - - -, f 5;
#X floatatom 116 80 5 0 0 0 - - -, f 5;
#X obj 262 35 r \$1-f-key-trk-s;
#X obj 247 57 f 0;
#X connect 0 0 10 0;
#X connect 2 0 3 0;
#X connect 2 0 19 0;
#X connect 3 0 20 0;
#X connect 4 0 3 1;
#X connect 5 0 3 2;
#X connect 6 0 3 3;
#X connect 7 0 3 4;
#X connect 8 0 3 5;
#X connect 9 0 17 0;
#X connect 10 0 1 0;
#X connect 11 0 15 0;
#X connect 12 0 13 0;
#X connect 13 0 14 0;
#X connect 13 0 29 0;
#X connect 14 0 15 1;
#X connect 14 0 28 0;
#X connect 15 0 16 0;
#X connect 15 0 24 0;
#X connect 16 0 10 1;
#X connect 17 0 18 0;
#X connect 18 0 10 2;
#X connect 20 0 15 0;
#X connect 21 0 22 0;
#X connect 22 0 27 0;
#X connect 23 0 24 0;
#X connect 24 0 25 0;
#X connect 26 0 23 0;
#X connect 27 0 20 1;
#X connect 30 0 31 1;
#X restore 450 252 pd vcf;
#X obj 450 493 outlet~;
#X obj 305 372 hsl 128 15 0 1 0 0 \$1-lfo-pitch-amt-s \$1-lfo-pitch-amt
lfo_pitch_amt -2 -8 0 10 -262144 -1 -1 0 1;
#X obj 305 402 hsl 128 15 0 1 0 0 \$1-lfo-filter-amt-s \$1-lfo-filter-amt
lfo_filter_amt -2 -8 0 10 -262144 -1 -1 0 1;
#X obj 538 168 loadbang;
#X msg 538 190 0.5;
#X obj 538 212 s \$1-osc-tri-amt;
#X obj 538 235 s \$1-vca-env-sus;
#X msg 577 189 0.1;
#X obj 577 255 s \$1-vca-env-atk;
#X obj 577 275 s \$1-vca-env-dcy;
#X obj 577 295 s \$1-vca-env-rel;
#X connect 35 0 36 0;
#X connect 36 0 37 0;
#X connect 36 1 37 1;
#X connect 37 0 38 0;
#X connect 37 1 38 1;
#X connect 37 2 38 2;
#X connect 38 0 39 0;
#X connect 39 0 40 0;
#X connect 40 0 46 0;
#X connect 40 0 51 1;
#X connect 40 1 50 1;
#X connect 41 0 49 0;
#X connect 42 0 43 0;
#X connect 43 0 44 0;
#X connect 44 0 45 0;
#X connect 45 0 47 1;
#X connect 46 0 41 0;
#X connect 46 1 47 0;
#X connect 47 0 48 0;
#X connect 48 0 49 1;
#X connect 49 0 50 0;
#X connect 50 0 51 0;
#X connect 51 0 52 0;
#X connect 55 0 56 0;
#X connect 55 0 59 0;
#X connect 56 0 57 0;
#X connect 56 0 58 0;
#X connect 59 0 60 0;
#X connect 59 0 61 0;
#X connect 59 0 62 0;
#X coords 0 -1 1 1 430 483 1 10 10;
