#N canvas 11 118 714 512 10;
#X obj 10 10 cnv 15 430 180 empty empty oscillator 20 12 0 14 -204786
-66577 0;
#X obj 23 42 hsl 128 15 0 1 0 0 \$1-osc-sub-amt-s \$1-osc-sub-amt osc_sub_amt
-2 -8 0 10 -262144 -1 -1 0 1;
#X obj 23 72 hsl 128 15 0 1 0 0 \$1-osc-saw-amt-s \$1-osc-saw-amt osc_saw_amt
-2 -8 0 10 -262144 -1 -1 0 1;
#X obj 23 102 hsl 128 15 0 1 0 0 \$1-osc-sq-amt-s \$1-osc-sq-amt osc_sq_amt
-2 -8 0 10 -262144 -1 -1 12700 1;
#X obj 23 132 hsl 128 15 0 1 0 0 \$1-osc-tri-amt-s \$1-osc-tri-amt
osc_tri_amt -2 -8 0 10 -262144 -1 -1 6350 1;
#X obj 23 162 hsl 128 15 0 1 0 0 \$1-osc-noise-amt-s \$1-osc-noise-amt
osc_noise_amt -2 -8 0 10 -262144 -1 -1 0 1;
#X obj 163 102 hsl 128 15 0 1 0 0 \$1-osc-sq-pw-s \$1-osc-sq-pw osc_sq_pw
-2 -8 0 10 -262144 -1 -1 3600 1;
#X obj 163 72 hsl 128 15 0 1 0 0 \$1-osc-ultrasaw-amt-s \$1-osc-ultrasaw-amt
osc_ultrasaw_amt -2 -8 0 10 -262144 -1 -1 0 1;
#X obj 161 42 hradio 15 1 0 2 \$1-osc-sub-type-s \$1-osc-sub-type osc_sub_sq/sin
0 -8 0 10 -262144 -1 -1 0;
#X obj 251 42 hradio 15 1 0 2 \$1-osc-sub-oct-s \$1-osc-sub-oct osc_sub_oct
0 -8 0 10 -262144 -1 -1 0;
#X obj 303 72 hsl 128 15 0 1 0 0 \$1-osc-ultrasaw-rate-s \$1-osc-ultrasaw-rate
osc_ultrasaw_rate -2 -8 0 10 -262144 -1 -1 0 1;
#X obj 303 102 hsl 128 15 0 1 0 0 \$1-osc-sq-pw-env-amt-s \$1-osc-sq-pw-env-amt
osc_sq_pw_env_amt -2 -8 0 10 -262144 -1 -1 0 1;
#X obj 163 132 hsl 128 15 0 1 0 0 \$1-osc-metalizer-amt-s \$1-osc-metalizer-amt
osc_metalizer_amt -2 -8 0 10 -262144 -1 -1 0 1;
#X obj 304 132 hsl 128 15 0 1 0 0 empty empty osc_metalizer_env_amt
-2 -8 0 10 -262144 -1 -1 0 1;
#X obj 10 191 cnv 15 430 150 empty empty filter 20 12 0 14 -261682
-66577 0;
#X obj 23 222 hsl 128 15 0 1 0 0 \$1-f-env-atk-s \$1-f-env-atk f_env_atk
-2 -8 0 10 -262144 -1 -1 0 1;
#X obj 23 252 hsl 128 15 0 1 0 0 \$1-f-env-dcy-s \$1-f-env-dcy f_env_dcy
-2 -8 0 10 -262144 -1 -1 0 1;
#X obj 23 282 hsl 128 15 0 1 0 0 \$1-f-env-sus-s \$1-f-env-sus f_env_sus
-2 -8 0 10 -262144 -1 -1 0 1;
#X obj 23 312 hsl 128 15 0 1 0 0 \$1-f-env-rel-s \$1-f-env-rel f_env_rel
-2 -8 0 10 -262144 -1 -1 0 1;
#X obj 163 222 hsl 128 15 0 1 0 0 \$1-f-freq-s \$1-f-freq f_freq -2
-8 0 10 -262144 -1 -1 0 1;
#X obj 163 252 hsl 128 15 0 1 0 0 \$1-f-res-s \$1-f-res f_res -2 -8
0 10 -262144 -1 -1 0 1;
#X obj 163 282 hsl 128 15 0 1 0 0 \$1-f-env-amt-s \$1-f-env-amt f_env_amt
-2 -8 0 10 -262144 -1 -1 0 1;
#X obj 163 312 hsl 128 15 0 1 0 0 \$1-f-key-trk-s \$1-f-key-trk f_key_trk
-2 -8 0 10 -262144 -1 -1 0 1;
#X obj 301 252 hradio 15 1 0 2 \$1-f-env-spd-s \$1-f-env-spd f_env_fst/slw
0 -8 0 10 -262144 -1 -1 0;
#X obj 10 342 cnv 15 150 150 empty empty vca 20 12 0 14 -232576 -66577
0;
#X obj 161 342 cnv 15 280 150 empty empty lfo 20 12 0 14 -204800 -66577
0;
#X obj 23 372 hsl 128 15 0 1 0 0 \$1-vca-env-atk-s \$1-vca-env-atk
vca_env_atk -2 -8 0 10 -262144 -1 -1 1270 1;
#X obj 23 402 hsl 128 15 0 1 0 0 \$1-vca-env-dcy-s \$1-vca-env-dcy
vca_env_dcy -2 -8 0 10 -262144 -1 -1 1270 1;
#X obj 23 432 hsl 128 15 0 1 0 0 \$1-vca-env-sus-s \$1-vca-env-sus
vca_env_sus -2 -8 0 10 -262144 -1 -1 6350 1;
#X obj 23 462 hsl 128 15 0 1 0 0 \$1-vca-env-rel-s \$1-vca-env-rel
vca_env_rel -2 -8 0 10 -262144 -1 -1 1270 1;
#X obj 168 372 hsl 128 15 0 1 0 0 \$1-lfo-rate-s \$1-lfo-rate lfo_rate
-2 -8 0 10 -262144 -1 -1 0 1;
#X obj 168 402 hsl 128 15 0 1 0 0 \$1-lfo-wave-s \$1-lfo-wave lfo_wave
-2 -8 0 10 -262144 -1 -1 0 1;
#X obj 168 432 hsl 128 15 0 1 0 0 \$1-lfo-pwm-amt-s \$1-lfo-pwm-amt
lfo_pwm_amt -2 -8 0 10 -262144 -1 -1 0 1;
#X obj 168 462 hsl 128 15 0 1 0 0 \$1-lfo-vca-amt-s \$1-lfo-vca-amt
lfo_vca_amt -2 -8 0 10 -262144 -1 -1 0 1;
#X obj 450 10 inlet notes;
#X obj 450 32 unpack f f;
#X obj 450 54 poly 1 1;
#X obj 450 76 pack 0 0 0;
#X obj 450 98 route 1;
#X obj 450 120 unpack 0 0;
#X obj 450 257 mtof;
#X obj 504 146 r \$1-osc-sub-oct-s;
#X obj 504 168 f 0;
#X obj 504 190 + 1;
#X obj 504 212 * 12;
#X obj 450 213 t f f, f 6;
#X obj 483 235 - 12;
#X obj 483 257 mtof;
#N canvas 737 119 450 300 vca 0;
#X obj 22 22 inlet~;
#X obj 22 277 outlet~;
#X obj 67 22 inlet trigger;
#X obj 67 149 mikiadsr;
#X obj 22 257 *~;
#X obj 76 64 r \$1-vca-env-atk-s;
#X obj 85 84 r \$1-vca-env-dcy-s;
#X obj 94 104 r \$1-vca-env-sus-s;
#X obj 103 124 r \$1-vca-env-rel-s;
#X obj 96 190 r \$1-lfo-vca-amt-s;
#X obj 81 211 *~;
#X obj 81 169 r~ \$1-lfo;
#X obj 67 231 +~;
#X connect 0 0 4 0;
#X connect 2 0 3 0;
#X connect 3 0 12 0;
#X connect 4 0 1 0;
#X connect 5 0 3 1;
#X connect 6 0 3 2;
#X connect 7 0 3 3;
#X connect 8 0 3 4;
#X connect 9 0 10 1;
#X connect 10 0 12 1;
#X connect 11 0 10 0;
#X connect 12 0 4 1;
#X restore 450 301 pd vca;
#N canvas 556 139 661 543 vcf 0;
#X obj 26 34 inlet~;
#X obj 26 525 outlet~;
#X obj 98 35 inlet trigger;
#X obj 98 156 mikiadsr;
#X obj 107 55 r \$1-f-env-atk-s;
#X obj 116 75 r \$1-f-env-dcy-s;
#X obj 125 95 r \$1-f-env-sus-s;
#X obj 134 115 r \$1-f-env-rel-s;
#X obj 143 135 r \$1-f-env-spd-s;
#X obj 47 437 r \$1-f-res-s;
#X obj 26 503 bob~;
#X obj 36 244 sig~ 1;
#X obj 362 56 r \$1-f-freq-s;
#X obj 362 78 * 127;
#X obj 362 100 mtof;
#X obj 36 266 *~ 2000;
#X obj 36 288 +~ 100;
#X obj 47 459 * 4;
#X obj 47 481 sig~ 3;
#X floatatom 284 84 5 0 0 0 - - -, f 5;
#X obj 98 244 *~;
#X obj 113 178 r \$1-f-env-amt-s;
#X obj 113 200 - 0.5;
#X obj 113 222 * 5;
#X floatatom 362 122 5 0 0 0 - - -, f 5;
#X obj 299 35 r \$1-f-key-trk-s;
#X obj 284 103 mtof;
#X obj 329 140 f 2000;
#X obj 329 120 bng 15 250 50 0 empty empty empty 17 7 0 10 -262144
-1 -1;
#X obj 299 57 * 2;
#X obj 344 161 * -1;
#X obj 344 183 + 2;
#X obj 284 182 * 0;
#X obj 329 204 * 2;
#X obj 284 262 +;
#X obj 284 284 / 2;
#X floatatom 284 306 5 0 0 0 - - -, f 5;
#X obj 51 310 r~ \$1-lfo;
#X obj 36 415 +~;
#X obj 66 373 r \$1-lfo-filter-amt-s;
#X obj 51 394 *~;
#X obj 51 352 *~ 5000;
#X obj 51 332 +~ 1;
#X connect 0 0 10 0;
#X connect 2 0 3 0;
#X connect 2 0 19 0;
#X connect 3 0 20 0;
#X connect 4 0 3 1;
#X connect 5 0 3 2;
#X connect 6 0 3 3;
#X connect 7 0 3 4;
#X connect 8 0 3 5;
#X connect 9 0 17 0;
#X connect 10 0 1 0;
#X connect 11 0 15 0;
#X connect 12 0 13 0;
#X connect 13 0 14 0;
#X connect 14 0 24 0;
#X connect 15 0 16 0;
#X connect 16 0 38 0;
#X connect 17 0 18 0;
#X connect 18 0 10 2;
#X connect 19 0 26 0;
#X connect 19 0 28 0;
#X connect 20 0 15 0;
#X connect 21 0 22 0;
#X connect 22 0 23 0;
#X connect 23 0 20 1;
#X connect 24 0 27 1;
#X connect 24 0 27 0;
#X connect 25 0 29 0;
#X connect 26 0 32 0;
#X connect 27 0 33 0;
#X connect 28 0 27 0;
#X connect 29 0 30 0;
#X connect 29 0 32 1;
#X connect 30 0 31 0;
#X connect 31 0 33 1;
#X connect 32 0 34 0;
#X connect 33 0 34 1;
#X connect 34 0 35 0;
#X connect 35 0 15 1;
#X connect 35 0 36 0;
#X connect 37 0 42 0;
#X connect 38 0 10 1;
#X connect 39 0 40 1;
#X connect 40 0 38 1;
#X connect 41 0 40 0;
#X connect 42 0 41 0;
#X restore 450 453 pd vcf;
#X obj 450 476 outlet~;
#X obj 305 372 hsl 128 15 0 1 0 0 \$1-lfo-pitch-amt-s \$1-lfo-pitch-amt
lfo_pitch_amt -2 -8 0 10 -262144 -1 -1 0 1;
#X obj 305 402 hsl 128 15 0 1 0 0 \$1-lfo-filter-amt-s \$1-lfo-filter-amt
lfo_filter_amt -2 -8 0 10 -262144 -1 -1 0 1;
#X obj 558 188 loadbang;
#X obj 558 232 s \$1-osc-tri-amt;
#X obj 558 255 s \$1-vca-env-sus;
#X msg 597 209 0.1;
#X obj 597 275 s \$1-vca-env-atk;
#X obj 597 295 s \$1-vca-env-dcy;
#X obj 597 315 s \$1-vca-env-rel;
#N canvas 651 195 614 375 lfo 0;
#X obj 25 327 s~ \$1-lfo;
#X obj 25 7 r \$1-lfo-rate-s;
#X obj 25 87 osc~;
#X obj 127 87 phasor~;
#X obj 127 109 -~ 0.5;
#X obj 127 131 *~ 2;
#X obj 306 25 r \$1-lfo-wave-s;
#X obj 234 66 noise~;
#X obj 234 87 samphold~;
#X obj 306 68 int;
#X floatatom 306 90 5 0 0 0 - - -, f 5;
#X obj 25 262 *~;
#X obj 69 262 *~;
#X obj 127 262 *~;
#X obj 183 262 *~;
#X obj 234 262 *~;
#X obj 307 148 == 0;
#X obj 345 148 == 1;
#X obj 383 148 == 2;
#X obj 421 148 == 3;
#X obj 459 148 == 4;
#X obj 459 170 tgl 15 0 empty empty empty 17 7 0 10 -262144 -1 -1 0
1;
#X obj 421 170 tgl 15 0 empty empty empty 17 7 0 10 -262144 -1 -1 0
1;
#X obj 383 170 tgl 15 0 empty empty empty 17 7 0 10 -262144 -1 -1 0
1;
#X obj 345 170 tgl 15 0 empty empty empty 17 7 0 10 -262144 -1 -1 0
1;
#X obj 307 170 tgl 15 0 empty empty empty 17 7 0 10 -262144 -1 -1 1
1;
#X obj 306 46 * 4.9;
#X obj 69 87 triosc~;
#X obj 25 49 * 100;
#X obj 25 29 + 0.001;
#X obj 183 87 sqosc~;
#X connect 1 0 29 0;
#X connect 2 0 11 0;
#X connect 3 0 4 0;
#X connect 3 0 8 1;
#X connect 4 0 5 0;
#X connect 5 0 13 0;
#X connect 6 0 26 0;
#X connect 7 0 8 0;
#X connect 8 0 15 0;
#X connect 9 0 10 0;
#X connect 10 0 16 0;
#X connect 10 0 17 0;
#X connect 10 0 18 0;
#X connect 10 0 19 0;
#X connect 10 0 20 0;
#X connect 11 0 0 0;
#X connect 12 0 0 0;
#X connect 13 0 0 0;
#X connect 14 0 0 0;
#X connect 15 0 0 0;
#X connect 16 0 25 0;
#X connect 17 0 24 0;
#X connect 18 0 23 0;
#X connect 19 0 22 0;
#X connect 20 0 21 0;
#X connect 21 0 15 1;
#X connect 22 0 14 1;
#X connect 23 0 13 1;
#X connect 24 0 12 1;
#X connect 25 0 11 1;
#X connect 26 0 9 0;
#X connect 27 0 12 0;
#X connect 28 0 2 0;
#X connect 28 0 3 0;
#X connect 28 0 27 0;
#X connect 28 0 30 0;
#X connect 29 0 28 0;
#X connect 30 0 14 0;
#X restore 528 76 pd lfo;
#N canvas 630 248 654 538 osc 0;
#X obj 13 19 inlet freq;
#X obj 332 110 inlet sub_freq;
#X obj 13 409 outlet~;
#X obj 431 221 osc~;
#X obj 332 306 *~;
#X obj 446 243 r \$1-osc-sub-type-s;
#X obj 431 307 *~;
#X obj 347 286 tgl 15 0 empty empty empty 17 7 0 10 -262144 -1 -1 1
1;
#X obj 446 287 tgl 15 0 empty empty empty 17 7 0 10 -262144 -1 -1 0
1;
#X obj 347 265 invert;
#X obj 13 101 sawosc~;
#X obj 125 243 triosc~;
#X obj 181 285 noise~;
#X obj 28 132 r \$1-osc-saw-amt-s;
#X obj 84 211 r \$1-osc-sq-amt-s;
#X obj 140 264 r \$1-osc-tri-amt-s;
#X obj 196 306 r \$1-osc-noise-amt-s;
#X obj 347 328 r \$1-osc-sub-amt-s;
#X obj 13 153 *~;
#X obj 69 233 *~;
#X obj 125 285 *~;
#X obj 181 327 *~;
#X obj 332 349 *~;
#X obj 287 19 r~ \$1-lfo;
#X obj 287 105 *~;
#X obj 302 61 r \$1-lfo-pitch-amt-s;
#X obj 13 57 sig~;
#X obj 13 79 +~;
#X obj 302 83 * 5000;
#X obj 332 175 sig~;
#X obj 332 197 +~;
#X obj 69 181 sqosc~;
#X obj 332 220 sqosc~;
#X obj 512 94 *~;
#X obj 527 72 r \$1-lfo-pwm-amt-s;
#X obj 512 51 /~ 2;
#X obj 497 116 r \$1-osc-sq-pw-s;
#X obj 497 138 sig~;
#X obj 497 160 +~;
#X obj 497 202 snapshot~;
#X obj 535 138 loadbang;
#X obj 535 180 metro 20;
#X floatatom 497 224 5 0 0 0 - - -, f 5;
#X floatatom 548 94 5 0 0 0 - - -, f 5;
#X msg 535 160 1;
#X connect 0 0 26 0;
#X connect 1 0 29 0;
#X connect 3 0 6 0;
#X connect 4 0 22 0;
#X connect 5 0 9 0;
#X connect 5 0 8 0;
#X connect 6 0 22 0;
#X connect 7 0 4 1;
#X connect 8 0 6 1;
#X connect 9 0 7 0;
#X connect 10 0 18 0;
#X connect 11 0 20 0;
#X connect 12 0 21 0;
#X connect 13 0 18 1;
#X connect 14 0 19 1;
#X connect 15 0 20 1;
#X connect 16 0 21 1;
#X connect 17 0 22 1;
#X connect 18 0 2 0;
#X connect 19 0 2 0;
#X connect 20 0 2 0;
#X connect 21 0 2 0;
#X connect 22 0 2 0;
#X connect 23 0 24 0;
#X connect 23 0 35 0;
#X connect 24 0 27 1;
#X connect 24 0 30 1;
#X connect 25 0 28 0;
#X connect 26 0 27 0;
#X connect 27 0 10 0;
#X connect 27 0 11 0;
#X connect 27 0 31 0;
#X connect 28 0 24 1;
#X connect 29 0 30 0;
#X connect 30 0 3 0;
#X connect 30 0 32 0;
#X connect 31 0 19 0;
#X connect 32 0 4 0;
#X connect 33 0 38 1;
#X connect 34 0 33 1;
#X connect 34 0 43 0;
#X connect 35 0 33 0;
#X connect 36 0 37 0;
#X connect 37 0 38 0;
#X connect 38 0 39 0;
#X connect 39 0 32 1;
#X connect 39 0 31 1;
#X connect 39 0 42 0;
#X connect 40 0 44 0;
#X connect 41 0 39 0;
#X connect 44 0 41 0;
#X restore 450 279 pd osc;
#X floatatom 525 238 5 0 0 0 - - -, f 5;
#X msg 558 211 1;
#X connect 34 0 35 0;
#X connect 35 0 36 0;
#X connect 35 1 36 1;
#X connect 36 0 37 0;
#X connect 36 1 37 1;
#X connect 36 2 37 2;
#X connect 37 0 38 0;
#X connect 38 0 39 0;
#X connect 39 0 45 0;
#X connect 39 0 49 1;
#X connect 39 1 48 1;
#X connect 40 0 61 0;
#X connect 41 0 42 0;
#X connect 42 0 43 0;
#X connect 43 0 44 0;
#X connect 44 0 46 1;
#X connect 45 0 40 0;
#X connect 45 1 46 0;
#X connect 46 0 47 0;
#X connect 46 0 62 0;
#X connect 47 0 61 1;
#X connect 48 0 49 0;
#X connect 49 0 50 0;
#X connect 53 0 63 0;
#X connect 53 0 56 0;
#X connect 56 0 57 0;
#X connect 56 0 58 0;
#X connect 56 0 59 0;
#X connect 61 0 48 0;
#X connect 63 0 54 0;
#X connect 63 0 55 0;
#X coords 0 -1 1 1 430 483 1 10 10;
