#N canvas 522 179 450 300 10;
#X obj 49 37 inlet;
#X obj 48 64 sel 0 1;
#X msg 48 86 1;
#X msg 80 85 0;
#X obj 53 119 outlet;
#X connect 0 0 1 0;
#X connect 1 0 2 0;
#X connect 1 1 3 0;
#X connect 2 0 4 0;
#X connect 3 0 4 0;
