#N canvas 85 104 542 451 10;
#X obj 21 44 inlet metro_bang;
#X obj 131 44 inlet start_stop;
#X obj 237 44 inlet~ sound;
#X obj 21 325 outlet~;
#X msg 36 75 1;
#X msg 76 75 0;
#X obj 21 147 sel 1 0;
#X obj 21 172 timer;
#X obj 21 117 change 0;
#X obj 21 96 f 0;
#X msg 67 172 stop;
#X obj 21 259 phasor~;
#X obj 21 281 *~ 1;
#X obj 21 194 t b f f;
#X msg 21 216 1000;
#X obj 21 238 /;
#X obj 60 216 * 44.1;
#X obj 237 115 table \$0-sample 4.41e+06;
#X obj 21 303 tabread~ \$0-sample;
#X obj 237 76 tabwrite~ \$0-sample;
#X connect 0 0 9 0;
#X connect 1 0 9 1;
#X connect 2 0 19 0;
#X connect 4 0 9 1;
#X connect 5 0 9 1;
#X connect 6 0 7 0;
#X connect 6 0 19 0;
#X connect 6 1 7 1;
#X connect 6 1 10 0;
#X connect 7 0 13 0;
#X connect 8 0 6 0;
#X connect 9 0 8 0;
#X connect 10 0 19 0;
#X connect 11 0 12 0;
#X connect 12 0 18 0;
#X connect 13 0 14 0;
#X connect 13 1 15 1;
#X connect 13 2 16 0;
#X connect 14 0 15 0;
#X connect 15 0 11 0;
#X connect 16 0 12 1;
#X connect 18 0 3 0;
