#N canvas 4 55 931 684 10;
#N canvas 0 51 450 300 init_akai 0;
#X obj 10 14 loadbang;
#X msg 10 36 midi-dialog 1 0 0 0 0 0 0 0 0 1 0 0 0 0 0 0 0 0 2 2;
#X obj 10 58 s pd;
#X connect 0 0 1 0;
#X connect 1 0 2 0;
#X restore 573 43 pd init_akai;
#N canvas 570 100 649 611 prog1 0;
#X floatatom 182 31 5 0 0 0 - - -, f 5;
#X obj 182 9 pgmin 1;
#X obj 112 31 f 1;
#X obj 112 103 makefilename ctlin_%s;
#X obj 112 9 loadbang;
#X obj 112 53 t f f;
#X obj 384 9 sel 1 2 3 4, f 33;
#X obj 384 78 oscformat /knob8/title;
#X obj 384 100 s osc-out;
#X obj 384 56 cyclone/tosymbol;
#X msg 384 31 ADSR;
#X obj 12 142 akaictlin 1 1 1 attack 1;
#X msg 421 31 VCO Mixer;
#X msg 494 31 Filters;
#X msg 555 31 LFO;
#X obj 12 166 akaictlin 1 2 1 decay 2;
#X obj 12 190 akaictlin 1 3 1 sustain 3;
#X obj 12 214 akaictlin 1 4 1 release 4;
#X obj 12 238 akaictlin 1 5 1 slow 5;
#X obj 12 262 akaictlin 1 6 1 n/a 6;
#X obj 12 286 akaictlin 1 7 1 n/a 7;
#X obj 12 310 akaictlin 1 8 1 n/a 8;
#X obj 12 334 akaictlin 2 1 1 sawlvl 1;
#X obj 12 358 akaictlin 2 2 1 sinelvl 2;
#X obj 12 382 akaictlin 2 3 1 sqlvl 3;
#X obj 12 406 akaictlin 2 4 1 noiselvl 4;
#X obj 12 430 akaictlin 2 5 1 n/a 5;
#X obj 12 454 akaictlin 2 6 1 n/a 6;
#X obj 12 478 akaictlin 2 7 1 sqpwm 7;
#X obj 12 502 akaictlin 2 8 1 n/a 8;
#X obj 202 334 akaictlin 4 1 1 sawlvl 1;
#X obj 202 358 akaictlin 4 2 1 sinelvl 2;
#X obj 202 382 akaictlin 4 3 1 sqlvl 3;
#X obj 202 406 akaictlin 4 4 1 noiselvl 4;
#X obj 202 430 akaictlin 4 5 1 n/a 5;
#X obj 202 454 akaictlin 4 6 1 n/a 6;
#X obj 202 478 akaictlin 4 7 1 sqpwm 7;
#X obj 202 502 akaictlin 4 8 1 n/a 8;
#X obj 202 142 akaictlin 3 1 1 vcffreq 1;
#X obj 202 166 akaictlin 3 2 1 vcfq 2;
#X obj 202 190 akaictlin 3 3 1 vcflvl 3;
#X obj 202 214 akaictlin 3 4 1 drylvl 4;
#X obj 202 238 akaictlin 3 5 1 bobfreq 5;
#X obj 202 262 akaictlin 3 6 1 bobq 6;
#X obj 202 286 akaictlin 3 7 1 boblvl 7;
#X obj 202 310 akaictlin 3 8 1 globalbpm 8;
#X obj 402 166 akaictlin 5 2 1 decay 2;
#X obj 402 190 akaictlin 5 3 1 sustain 3;
#X obj 402 214 akaictlin 5 4 1 release 4;
#X obj 402 238 akaictlin 5 5 1 slow 5;
#X obj 402 262 akaictlin 5 6 1 n/a 6;
#X obj 402 286 akaictlin 5 7 1 n/a 7;
#X obj 402 310 akaictlin 5 8 1 n/a 8;
#X obj 402 142 akaictlin 5 1 1 1-osc-sub-amt 1;
#X connect 0 0 2 0;
#X connect 1 0 0 0;
#X connect 2 0 5 0;
#X connect 4 0 2 0;
#X connect 5 0 3 0;
#X connect 5 1 6 0;
#X connect 6 0 10 0;
#X connect 6 1 12 0;
#X connect 6 2 13 0;
#X connect 6 3 14 0;
#X connect 7 0 8 0;
#X connect 9 0 7 0;
#X connect 10 0 9 0;
#X connect 12 0 9 0;
#X connect 13 0 9 0;
#X connect 14 0 9 0;
#X restore 573 22 pd prog1;
#X obj 33 36 notein 1;
#X floatatom 33 58 5 0 0 0 - - -, f 5;
#X floatatom 86 58 5 0 0 0 - - -, f 5;
#X obj 33 99 pack 0 0 0;
#X obj 33 121 route 1;
#X obj 103 363 brute, f 50;
#X obj 103 385 dac~;
#X text 575 104 TODO mikibrute LFO;
#X obj 575 224 midiclockout;
#X floatatom 656 205 5 0 0 0 bpm - -, f 5;
#X obj 656 184 + 60;
#X obj 575 180 loadbang;
#X msg 575 202 1;
#N canvas 526 318 450 300 init_touchosc 1;
#X msg 13 78 listen 8000;
#X obj 13 120 netreceive -u -b;
#X obj 13 142 oscparse;
#X msg 20 99 listen 0;
#X obj 13 17 loadbang;
#X msg 149 78 connect 192.168.3.2 9000;
#X obj 143 120 netsend -u -b;
#X msg 150 99 disconnect;
#X obj 143 35 list prepend send;
#X obj 143 57 list trim;
#X obj 13 164 route list;
#X obj 143 13 r osc-out;
#X obj 13 186 s osc-in;
#X obj 20 58 bng 15 250 50 0 empty empty disconnect 17 7 0 10 -262144
-1 -1;
#X connect 0 0 1 0;
#X connect 1 0 2 0;
#X connect 2 0 10 0;
#X connect 3 0 1 0;
#X connect 4 0 0 0;
#X connect 4 0 5 0;
#X connect 5 0 6 0;
#X connect 7 0 6 0;
#X connect 8 0 9 0;
#X connect 9 0 6 0;
#X connect 10 0 12 0;
#X connect 11 0 8 0;
#X connect 13 0 3 0;
#X connect 13 0 7 0;
#X restore 573 64 pd init_touchosc;
#X obj 83 149 r attack;
#X floatatom 83 171 5 0 0 0 - - -, f 5;
#X floatatom 83 211 5 0 0 0 - - -, f 5;
#X floatatom 139 171 5 0 0 0 - - -, f 5;
#X floatatom 139 211 5 0 0 0 - - -, f 5;
#X obj 83 189 r decay;
#X obj 139 149 r sustain;
#X obj 139 189 r release;
#X floatatom 139 251 5 0 0 0 - - -, f 5;
#X obj 139 229 r slow;
#X floatatom 207 171 5 0 0 0 - - -, f 5;
#X floatatom 267 171 5 0 0 0 - - -, f 5;
#X obj 207 149 r sawlvl;
#X obj 267 149 r sinelvl;
#X floatatom 337 171 5 0 0 0 - - -, f 5;
#X floatatom 397 171 5 0 0 0 - - -, f 5;
#X obj 337 149 r sqlvl;
#X obj 397 149 r sqpwm;
#X obj 462 149 r noiselvl;
#X floatatom 462 171 5 0 0 0 - - -, f 5;
#X floatatom 463 213 5 0 0 0 - - -, f 5;
#X floatatom 463 253 5 0 0 0 - - -, f 5;
#X floatatom 463 293 5 0 0 0 - - -, f 5;
#X floatatom 463 333 5 0 0 0 - - -, f 5;
#X floatatom 464 373 5 0 0 0 - - -, f 5;
#X floatatom 464 413 5 0 0 0 - - -, f 5;
#X obj 463 191 r vcffreq;
#X obj 463 231 r vcfq;
#X obj 463 271 r vcflvl;
#X obj 463 311 r bobfreq;
#X obj 464 351 r bobq;
#X obj 464 391 r boblvl;
#X floatatom 464 453 5 0 0 0 - - -, f 5;
#X obj 464 431 r drylvl;
#X obj 656 141 r globalbpm;
#X obj 656 163 * 127;
#X obj 462 19 loadbang;
#X msg 462 41 1;
#X msg 498 41 \; pd dsp 1 \;;
#X obj 33 77 poly 1 1;
#X obj 170 79 pack f f;
#X obj 742 40 brutegui 1;
#X connect 2 0 3 0;
#X connect 2 0 56 0;
#X connect 2 1 4 0;
#X connect 2 1 56 1;
#X connect 3 0 55 0;
#X connect 4 0 55 1;
#X connect 5 0 6 0;
#X connect 6 0 7 0;
#X connect 7 0 8 0;
#X connect 7 0 8 1;
#X connect 11 0 10 1;
#X connect 12 0 11 0;
#X connect 13 0 14 0;
#X connect 14 0 10 0;
#X connect 16 0 17 0;
#X connect 17 0 7 1;
#X connect 18 0 7 2;
#X connect 19 0 7 3;
#X connect 20 0 7 4;
#X connect 21 0 18 0;
#X connect 22 0 19 0;
#X connect 23 0 20 0;
#X connect 24 0 7 5;
#X connect 25 0 24 0;
#X connect 26 0 7 6;
#X connect 27 0 7 7;
#X connect 28 0 26 0;
#X connect 29 0 27 0;
#X connect 30 0 7 8;
#X connect 31 0 7 9;
#X connect 32 0 30 0;
#X connect 33 0 31 0;
#X connect 34 0 35 0;
#X connect 35 0 7 10;
#X connect 36 0 7 11;
#X connect 37 0 7 12;
#X connect 38 0 7 13;
#X connect 39 0 7 14;
#X connect 40 0 7 15;
#X connect 41 0 7 16;
#X connect 42 0 36 0;
#X connect 43 0 37 0;
#X connect 44 0 38 0;
#X connect 45 0 39 0;
#X connect 46 0 40 0;
#X connect 47 0 41 0;
#X connect 48 0 7 17;
#X connect 49 0 48 0;
#X connect 50 0 51 0;
#X connect 51 0 12 0;
#X connect 52 0 53 0;
#X connect 52 0 54 0;
#X connect 53 0 27 0;
#X connect 53 0 19 0;
#X connect 53 0 48 0;
#X connect 55 0 5 0;
#X connect 55 1 5 1;
#X connect 55 2 5 2;
#X connect 56 0 57 0;
#X connect 57 0 8 0;
#X connect 57 0 8 1;
