#N canvas 354 57 931 684 10;
#N canvas 0 51 450 300 init_akai 0;
#X obj 10 14 loadbang;
#X msg 10 36 midi-dialog 1 0 0 0 0 0 0 0 0 1 0 0 0 0 0 0 0 0 2 2;
#X obj 10 58 s pd;
#X connect 0 0 1 0;
#X connect 1 0 2 0;
#X restore 168 9 pd init_akai;
#X obj 543 24 vsl 15 128 0 127 0 0 empty ctlin_1_1_1 empty 0 -9 0 10
-262144 -1 -1 2800 1;
#N canvas 186 327 800 327 prog1 0;
#X obj 156 15 akaictlin 5 1;
#X floatatom 464 39 5 0 0 0 - - -, f 5;
#X obj 464 17 pgmin 1;
#X obj 394 39 f 1;
#X obj 394 61 makefilename ctlin_%s;
#X obj 11 15 akaictlin 1 1;
#X obj 11 59 akaictlin 2 1;
#X obj 11 103 akaictlin 3 1;
#X obj 11 147 akaictlin 4 1;
#X obj 156 59 akaictlin 6 1;
#X obj 156 103 akaictlin 7 1;
#X obj 156 147 akaictlin 8 1;
#X obj 394 17 loadbang;
#X connect 1 0 3 0;
#X connect 2 0 1 0;
#X connect 3 0 4 0;
#X connect 4 0 0 0;
#X connect 4 0 5 0;
#X connect 4 0 9 0;
#X connect 4 0 6 0;
#X connect 4 0 10 0;
#X connect 4 0 7 0;
#X connect 4 0 11 0;
#X connect 4 0 8 0;
#X connect 12 0 3 0;
#X restore 703 22 pd prog1;
#X obj 50 67 notein 1;
#X floatatom 50 89 5 0 0 0 - - -, f 5;
#X floatatom 103 90 5 0 0 0 - - -, f 5;
#X text 209 50 TODO mikibrute adapt;
#X text 208 65 TODO clock to akai;
#X obj 50 108 bng 15 250 50 0 empty empty empty 17 7 0 10 -262144 -1
-1;
#X obj 164 166 ctlin;
#X floatatom 164 188 5 0 0 0 - - -, f 5;
#X floatatom 206 188 5 0 0 0 - - -, f 5;
#X floatatom 247 188 5 0 0 0 - - -, f 5;
#X obj 563 24 vsl 15 128 0 127 0 0 empty ctlin_1_2_1 empty 0 -9 0 10
-262144 -1 -1 4100 1;
#X obj 583 24 vsl 15 128 0 127 0 0 empty ctlin_1_3_1 empty 0 -9 0 10
-262144 -1 -1 3600 1;
#X obj 603 24 vsl 15 128 0 127 0 0 empty ctlin_1_4_1 empty 0 -9 0 10
-262144 -1 -1 4400 1;
#X obj 623 24 vsl 15 128 0 127 0 0 empty ctlin_1_5_1 empty 0 -9 0 10
-262144 -1 -1 5200 1;
#X obj 643 24 vsl 15 128 0 127 0 0 empty ctlin_1_6_1 empty 0 -9 0 10
-262144 -1 -1 6200 1;
#X obj 663 24 vsl 15 128 0 127 0 0 empty ctlin_1_7_1 empty 0 -9 0 10
-262144 -1 -1 6200 1;
#X obj 683 24 vsl 15 128 0 127 0 0 empty ctlin_1_8_1 empty 0 -9 0 10
-262144 -1 -1 6800 1;
#X obj 543 164 vsl 15 128 0 127 0 0 empty ctlin_2_1_1 empty 0 -9 0
10 -262144 -1 -1 5300 1;
#X obj 563 164 vsl 15 128 0 127 0 0 empty ctlin_2_2_1 empty 0 -9 0
10 -262144 -1 -1 5000 1;
#X obj 583 164 vsl 15 128 0 127 0 0 empty ctlin_2_3_1 empty 0 -9 0
10 -262144 -1 -1 8700 1;
#X obj 603 164 vsl 15 128 0 127 0 0 empty ctlin_2_4_1 empty 0 -9 0
10 -262144 -1 -1 6000 1;
#X obj 623 164 vsl 15 128 0 127 0 0 empty ctlin_2_5_1 empty 0 -9 0
10 -262144 -1 -1 3400 1;
#X obj 643 164 vsl 15 128 0 127 0 0 empty ctlin_2_6_1 empty 0 -9 0
10 -262144 -1 -1 3700 1;
#X obj 663 164 vsl 15 128 0 127 0 0 empty ctlin_2_7_1 empty 0 -9 0
10 -262144 -1 -1 2800 1;
#X obj 683 164 vsl 15 128 0 127 0 0 empty ctlin_2_8_1 empty 0 -9 0
10 -262144 -1 -1 3600 1;
#X obj 543 304 vsl 15 128 0 127 0 0 empty ctlin_3_1_1 empty 0 -9 0
10 -262144 -1 -1 0 1;
#X obj 563 304 vsl 15 128 0 127 0 0 empty ctlin_3_2_1 empty 0 -9 0
10 -262144 -1 -1 0 1;
#X obj 583 304 vsl 15 128 0 127 0 0 empty ctlin_3_3_1 empty 0 -9 0
10 -262144 -1 -1 0 1;
#X obj 603 304 vsl 15 128 0 127 0 0 empty ctlin_3_4_1 empty 0 -9 0
10 -262144 -1 -1 0 1;
#X obj 623 304 vsl 15 128 0 127 0 0 empty ctlin_3_5_1 empty 0 -9 0
10 -262144 -1 -1 0 1;
#X obj 643 304 vsl 15 128 0 127 0 0 empty ctlin_3_6_1 empty 0 -9 0
10 -262144 -1 -1 0 1;
#X obj 663 304 vsl 15 128 0 127 0 0 empty ctlin_3_7_1 empty 0 -9 0
10 -262144 -1 -1 0 1;
#X obj 683 304 vsl 15 128 0 127 0 0 empty ctlin_3_8_1 empty 0 -9 0
10 -262144 -1 -1 0 1;
#X obj 543 444 vsl 15 128 0 127 0 0 empty ctlin_4_1_1 empty 0 -9 0
10 -262144 -1 -1 0 1;
#X obj 563 444 vsl 15 128 0 127 0 0 empty ctlin_4_2_1 empty 0 -9 0
10 -262144 -1 -1 0 1;
#X obj 583 444 vsl 15 128 0 127 0 0 empty ctlin_4_3_1 empty 0 -9 0
10 -262144 -1 -1 0 1;
#X obj 603 444 vsl 15 128 0 127 0 0 empty ctlin_4_4_1 empty 0 -9 0
10 -262144 -1 -1 0 1;
#X obj 623 444 vsl 15 128 0 127 0 0 empty ctlin_4_5_1 empty 0 -9 0
10 -262144 -1 -1 0 1;
#X obj 643 444 vsl 15 128 0 127 0 0 empty ctlin_4_6_1 empty 0 -9 0
10 -262144 -1 -1 0 1;
#X obj 663 444 vsl 15 128 0 127 0 0 empty ctlin_4_7_1 empty 0 -9 0
10 -262144 -1 -1 0 1;
#X obj 683 444 vsl 15 128 0 127 0 0 empty ctlin_4_8_1 empty 0 -9 0
10 -262144 -1 -1 0 1;
#X connect 3 0 4 0;
#X connect 3 1 5 0;
#X connect 4 0 8 0;
#X connect 9 0 10 0;
#X connect 9 1 11 0;
#X connect 9 2 12 0;
