#N canvas 354 57 931 684 10;
#N canvas 0 51 450 300 init_akai 0;
#X obj 10 14 loadbang;
#X msg 10 36 midi-dialog 1 0 0 0 0 0 0 0 0 1 0 0 0 0 0 0 0 0 2 2;
#X obj 10 58 s pd;
#X connect 0 0 1 0;
#X connect 1 0 2 0;
#X restore 703 43 pd init_akai;
#X obj 143 24 vsl 15 128 0 127 0 0 empty ctlin_1_1_1 empty 0 -9 0 10
-262144 -1 -1 700 1;
#N canvas 186 327 800 327 prog1 0;
#X obj 156 15 akaictlin 5 1;
#X floatatom 464 39 5 0 0 0 - - -, f 5;
#X obj 464 17 pgmin 1;
#X obj 394 39 f 1;
#X obj 394 61 makefilename ctlin_%s;
#X obj 11 15 akaictlin 1 1;
#X obj 11 59 akaictlin 2 1;
#X obj 11 103 akaictlin 3 1;
#X obj 11 147 akaictlin 4 1;
#X obj 156 59 akaictlin 6 1;
#X obj 156 103 akaictlin 7 1;
#X obj 156 147 akaictlin 8 1;
#X obj 394 17 loadbang;
#X connect 1 0 3 0;
#X connect 2 0 1 0;
#X connect 3 0 4 0;
#X connect 4 0 0 0;
#X connect 4 0 5 0;
#X connect 4 0 9 0;
#X connect 4 0 6 0;
#X connect 4 0 10 0;
#X connect 4 0 7 0;
#X connect 4 0 11 0;
#X connect 4 0 8 0;
#X connect 12 0 3 0;
#X restore 703 22 pd prog1;
#X text 705 64 TODO mikibrute adapt;
#X text 704 79 TODO clock to akai;
#X obj 163 24 vsl 15 128 0 127 0 0 empty ctlin_1_2_1 empty 0 -9 0 10
-262144 -1 -1 0 1;
#X obj 183 24 vsl 15 128 0 127 0 0 empty ctlin_1_3_1 empty 0 -9 0 10
-262144 -1 -1 12700 1;
#X obj 203 24 vsl 15 128 0 127 0 0 empty ctlin_1_4_1 empty 0 -9 0 10
-262144 -1 -1 1500 1;
#X obj 223 24 vsl 15 128 0 127 0 0 empty ctlin_1_5_1 empty 0 -9 0 10
-262144 -1 -1 0 1;
#X obj 243 24 vsl 15 128 0 127 0 0 empty ctlin_1_6_1 empty 0 -9 0 10
-262144 -1 -1 10700 1;
#X obj 263 24 vsl 15 128 0 127 0 0 empty ctlin_1_7_1 empty 0 -9 0 10
-262144 -1 -1 4200 1;
#X obj 283 24 vsl 15 128 0 127 0 0 empty ctlin_1_8_1 empty 0 -9 0 10
-262144 -1 -1 8100 1;
#X obj 303 24 vsl 15 128 0 127 0 0 empty ctlin_2_1_1 empty 0 -9 0 10
-262144 -1 -1 3800 1;
#X obj 323 24 vsl 15 128 0 127 0 0 empty ctlin_2_2_1 empty 0 -9 0 10
-262144 -1 -1 0 1;
#X obj 343 24 vsl 15 128 0 127 0 0 empty ctlin_2_3_1 empty 0 -9 0 10
-262144 -1 -1 2300 1;
#X obj 363 24 vsl 15 128 0 127 0 0 empty ctlin_2_4_1 empty 0 -9 0 10
-262144 -1 -1 5900 1;
#X obj 383 24 vsl 15 128 0 127 0 0 empty ctlin_2_5_1 empty 0 -9 0 10
-262144 -1 -1 6700 1;
#X obj 403 24 vsl 15 128 0 127 0 0 empty ctlin_2_6_1 empty 0 -9 0 10
-262144 -1 -1 200 1;
#X obj 423 24 vsl 15 128 0 127 0 0 empty ctlin_2_7_1 empty 0 -9 0 10
-262144 -1 -1 3900 1;
#X obj 443 24 vsl 15 128 0 127 0 0 empty ctlin_2_8_1 empty 0 -9 0 10
-262144 -1 -1 11000 1;
#X obj 543 304 vsl 15 128 0 127 0 0 empty ctlin_3_1_1 empty 0 -9 0
10 -262144 -1 -1 0 1;
#X obj 563 304 vsl 15 128 0 127 0 0 empty ctlin_3_2_1 empty 0 -9 0
10 -262144 -1 -1 400 1;
#X obj 583 304 vsl 15 128 0 127 0 0 empty ctlin_3_3_1 empty 0 -9 0
10 -262144 -1 -1 4600 1;
#X obj 603 304 vsl 15 128 0 127 0 0 empty ctlin_3_4_1 empty 0 -9 0
10 -262144 -1 -1 0 1;
#X obj 623 304 vsl 15 128 0 127 0 0 empty ctlin_3_5_1 empty 0 -9 0
10 -262144 -1 -1 5700 1;
#X obj 643 304 vsl 15 128 0 127 0 0 empty ctlin_3_6_1 empty 0 -9 0
10 -262144 -1 -1 5200 1;
#X obj 663 304 vsl 15 128 0 127 0 0 empty ctlin_3_7_1 empty 0 -9 0
10 -262144 -1 -1 8600 1;
#X obj 683 304 vsl 15 128 0 127 0 0 empty ctlin_3_8_1 empty 0 -9 0
10 -262144 -1 -1 0 1;
#X obj 543 444 vsl 15 128 0 127 0 0 empty ctlin_4_1_1 empty 0 -9 0
10 -262144 -1 -1 0 1;
#X obj 563 444 vsl 15 128 0 127 0 0 empty ctlin_4_2_1 empty 0 -9 0
10 -262144 -1 -1 0 1;
#X obj 583 444 vsl 15 128 0 127 0 0 empty ctlin_4_3_1 empty 0 -9 0
10 -262144 -1 -1 0 1;
#X obj 603 444 vsl 15 128 0 127 0 0 empty ctlin_4_4_1 empty 0 -9 0
10 -262144 -1 -1 0 1;
#X obj 623 444 vsl 15 128 0 127 0 0 empty ctlin_4_5_1 empty 0 -9 0
10 -262144 -1 -1 0 1;
#X obj 643 444 vsl 15 128 0 127 0 0 empty ctlin_4_6_1 empty 0 -9 0
10 -262144 -1 -1 0 1;
#X obj 663 444 vsl 15 128 0 127 0 0 empty ctlin_4_7_1 empty 0 -9 0
10 -262144 -1 -1 0 1;
#X obj 683 444 vsl 15 128 0 127 0 0 empty ctlin_4_8_1 empty 0 -9 0
10 -262144 -1 -1 0 1;
#X obj 33 36 notein 1;
#X floatatom 33 58 5 0 0 0 - - -, f 5;
#X floatatom 86 58 5 0 0 0 - - -, f 5;
#X obj 33 99 pack 0 0 0;
#X obj 33 77 poly 1 1;
#X obj 33 121 route 1;
#X obj 103 363 brute, f 50;
#X obj 103 385 dac~;
#X connect 1 0 42 1;
#X connect 5 0 42 2;
#X connect 6 0 42 3;
#X connect 7 0 42 4;
#X connect 8 0 42 5;
#X connect 9 0 42 6;
#X connect 10 0 42 7;
#X connect 11 0 42 8;
#X connect 12 0 42 9;
#X connect 13 0 42 10;
#X connect 14 0 42 11;
#X connect 15 0 42 12;
#X connect 16 0 42 13;
#X connect 17 0 42 14;
#X connect 18 0 42 15;
#X connect 19 0 42 16;
#X connect 20 0 42 17;
#X connect 36 0 37 0;
#X connect 36 1 38 0;
#X connect 37 0 40 0;
#X connect 38 0 40 1;
#X connect 39 0 41 0;
#X connect 40 0 39 0;
#X connect 40 1 39 1;
#X connect 40 2 39 2;
#X connect 41 0 42 0;
#X connect 42 0 43 0;
#X connect 42 0 43 1;
