#N canvas 1 23 898 687 10;
#N canvas 0 51 450 300 init_akai 0;
#X obj 10 14 loadbang;
#X msg 10 36 midi-dialog 1 0 0 0 0 0 0 0 0 1 0 0 0 0 0 0 0 0 2 2;
#X obj 10 58 s pd;
#X connect 0 0 1 0;
#X connect 1 0 2 0;
#X restore 573 43 pd init_akai;
#N canvas 625 145 649 611 prog1 1;
#X floatatom 182 31 5 0 0 0 - - -, f 5;
#X obj 182 9 pgmin 1;
#X obj 112 31 f 1;
#X obj 112 103 makefilename ctlin_%s;
#X obj 112 9 loadbang;
#X obj 112 53 t f f;
#X obj 384 9 sel 1 2 3 4, f 33;
#X obj 384 78 oscformat /knob8/title;
#X obj 384 100 s osc-out;
#X obj 384 56 cyclone/tosymbol;
#X msg 384 31 ADSR;
#X obj 12 142 akaictlin 1 1 1 attack 1;
#X msg 421 31 VCO Mixer;
#X msg 494 31 Filters;
#X msg 555 31 LFO;
#X obj 12 166 akaictlin 1 2 1 decay 2;
#X obj 12 190 akaictlin 1 3 1 sustain 3;
#X obj 12 214 akaictlin 1 4 1 release 4;
#X obj 12 238 akaictlin 1 5 1 slow 5;
#X obj 12 262 akaictlin 1 6 1 n/a 6;
#X obj 12 286 akaictlin 1 7 1 n/a 7;
#X obj 12 310 akaictlin 1 8 1 n/a 8;
#X obj 12 334 akaictlin 2 1 1 sawlvl 1;
#X obj 12 358 akaictlin 2 2 1 sinelvl 2;
#X obj 12 382 akaictlin 2 3 1 sqlvl 3;
#X obj 12 406 akaictlin 2 4 1 noiselvl 4;
#X obj 12 430 akaictlin 2 5 1 n/a 5;
#X obj 12 454 akaictlin 2 6 1 n/a 6;
#X obj 12 478 akaictlin 2 7 1 sqpwm 7;
#X obj 12 502 akaictlin 2 8 1 n/a 8;
#X obj 202 334 akaictlin 4 1 1 sawlvl 1;
#X obj 202 358 akaictlin 4 2 1 sinelvl 2;
#X obj 202 382 akaictlin 4 3 1 sqlvl 3;
#X obj 202 406 akaictlin 4 4 1 noiselvl 4;
#X obj 202 430 akaictlin 4 5 1 n/a 5;
#X obj 202 454 akaictlin 4 6 1 n/a 6;
#X obj 202 478 akaictlin 4 7 1 sqpwm 7;
#X obj 202 502 akaictlin 4 8 1 n/a 8;
#X obj 202 142 akaictlin 3 1 1 vcffreq 1;
#X obj 202 166 akaictlin 3 2 1 vcfq 2;
#X obj 202 190 akaictlin 3 3 1 vcflvl 3;
#X obj 202 214 akaictlin 3 4 1 drylvl 4;
#X obj 202 238 akaictlin 3 5 1 bobfreq 5;
#X obj 202 262 akaictlin 3 6 1 bobq 6;
#X obj 202 286 akaictlin 3 7 1 boblvl 7;
#X obj 202 310 akaictlin 3 8 1 globalbpm 8;
#X obj 402 166 akaictlin 5 2 1 decay 2;
#X obj 402 190 akaictlin 5 3 1 sustain 3;
#X obj 402 214 akaictlin 5 4 1 release 4;
#X obj 402 238 akaictlin 5 5 1 slow 5;
#X obj 402 262 akaictlin 5 6 1 n/a 6;
#X obj 402 286 akaictlin 5 7 1 n/a 7;
#X obj 402 310 akaictlin 5 8 1 n/a 8;
#X obj 402 142 akaictlin 5 1 1 1-osc-sub-amt 1;
#X obj 402 332 akaictlin 6 1 1 1-osc-sub-amt 1;
#X obj 402 356 akaictlin 6 2 1 decay 2;
#X obj 402 380 akaictlin 6 3 1 sustain 3;
#X obj 402 404 akaictlin 6 4 1 release 4;
#X obj 402 428 akaictlin 6 5 1 slow 5;
#X obj 402 452 akaictlin 6 6 1 n/a 6;
#X obj 402 476 akaictlin 6 7 1 n/a 7;
#X obj 402 500 akaictlin 6 8 1 n/a 8;
#X connect 0 0 2 0;
#X connect 1 0 0 0;
#X connect 2 0 5 0;
#X connect 4 0 2 0;
#X connect 5 0 3 0;
#X connect 5 1 6 0;
#X connect 6 0 10 0;
#X connect 6 1 12 0;
#X connect 6 2 13 0;
#X connect 6 3 14 0;
#X connect 7 0 8 0;
#X connect 9 0 7 0;
#X connect 10 0 9 0;
#X connect 12 0 9 0;
#X connect 13 0 9 0;
#X connect 14 0 9 0;
#X restore 573 22 pd prog1;
#X obj 9 6 notein 1;
#X floatatom 9 28 5 0 0 0 - - -, f 5;
#X floatatom 54 28 5 0 0 0 - - -, f 5;
#X obj 9 69 pack 0 0 0;
#X obj 9 91 route 1;
#X obj 9 660 dac~;
#X text 575 104 TODO mikibrute LFO;
#X obj 415 105 midiclockout;
#X floatatom 484 86 5 0 0 0 bpm - -, f 5;
#X obj 484 65 + 60;
#X obj 415 61 loadbang;
#X msg 415 83 1;
#N canvas 523 316 450 300 init_touchosc 0;
#X msg 13 78 listen 8000;
#X obj 13 120 netreceive -u -b;
#X obj 13 142 oscparse;
#X msg 20 99 listen 0;
#X obj 13 17 loadbang;
#X msg 149 78 connect 192.168.3.2 9000;
#X obj 143 120 netsend -u -b;
#X msg 150 99 disconnect;
#X obj 143 35 list prepend send;
#X obj 143 57 list trim;
#X obj 13 164 route list;
#X obj 143 13 r osc-out;
#X obj 13 186 s osc-in;
#X obj 20 58 bng 15 250 50 0 empty empty disconnect 17 7 0 10 -262144
-1 -1;
#X connect 0 0 1 0;
#X connect 1 0 2 0;
#X connect 2 0 10 0;
#X connect 3 0 1 0;
#X connect 4 0 0 0;
#X connect 4 0 5 0;
#X connect 5 0 6 0;
#X connect 7 0 6 0;
#X connect 8 0 9 0;
#X connect 9 0 6 0;
#X connect 10 0 12 0;
#X connect 11 0 8 0;
#X connect 13 0 3 0;
#X connect 13 0 7 0;
#X restore 573 64 pd init_touchosc;
#X obj 484 22 r globalbpm;
#X obj 484 44 * 127;
#X msg 348 90 \; pd dsp 1 \;;
#X obj 9 47 poly 1 1;
#X obj 9 170 brutegui 1;
#X obj 18 117 tgl 15 0 empty empty empty 17 7 0 10 -262144 -1 -1 0
1;
#N canvas 37 244 450 300 testnote 0;
#X obj 13 18 inlet tgl;
#X obj 12 145 pack f f;
#X obj 12 118 makenote 64 500;
#X obj 12 52 metro 1 60 permin;
#X obj 12 74 random 12;
#X obj 12 96 + 60;
#X obj 12 167 outlet note;
#X connect 0 0 3 0;
#X connect 1 0 6 0;
#X connect 2 0 1 0;
#X connect 2 1 1 1;
#X connect 3 0 4 0;
#X connect 4 0 5 0;
#X connect 5 0 2 0;
#X restore 18 137 pd testnote;
#X obj 448 169 werkstattgui 2;
#X connect 2 0 3 0;
#X connect 2 1 4 0;
#X connect 3 0 18 0;
#X connect 4 0 18 1;
#X connect 5 0 6 0;
#X connect 6 0 19 0;
#X connect 10 0 9 1;
#X connect 11 0 10 0;
#X connect 12 0 13 0;
#X connect 12 0 17 0;
#X connect 13 0 9 0;
#X connect 15 0 16 0;
#X connect 16 0 11 0;
#X connect 18 0 5 0;
#X connect 18 1 5 1;
#X connect 18 2 5 2;
#X connect 19 0 7 0;
#X connect 19 0 7 1;
#X connect 20 0 21 0;
#X connect 21 0 19 0;
