#N canvas 351 55 931 684 10;
#N canvas 0 51 450 300 init_akai 0;
#X obj 10 14 loadbang;
#X msg 10 36 midi-dialog 1 0 0 0 0 0 0 0 0 1 0 0 0 0 0 0 0 0 2 2;
#X obj 10 58 s pd;
#X connect 0 0 1 0;
#X connect 1 0 2 0;
#X restore 703 43 pd init_akai;
#X obj 143 24 vsl 15 128 0 127 0 0 empty ctlin_1_1_1 empty 0 -9 0 10
-262144 -1 -1 0 1;
#N canvas 670 232 620 376 prog1 1;
#X floatatom 182 31 5 0 0 0 - - -, f 5;
#X obj 182 9 pgmin 1;
#X obj 112 31 f 1;
#X obj 112 103 makefilename ctlin_%s;
#X obj 112 9 loadbang;
#X obj 112 53 t f f;
#X obj 284 73 sel 1 2 3 4;
#X obj 284 172 oscformat /knob8/title;
#X obj 284 194 s osc-out;
#X obj 284 150 cyclone/tosymbol;
#X msg 284 95 ADSR;
#X msg 300 118 test2;
#X obj 12 142 akaictlin 1 1 1 attack 1;
#X obj 177 142 akaictlin 5 1;
#X obj 12 166 akaictlin 2 1;
#X obj 12 190 akaictlin 3 1;
#X obj 12 214 akaictlin 4 1;
#X obj 177 166 akaictlin 6 1;
#X obj 177 190 akaictlin 7 1;
#X obj 177 214 akaictlin 8 1;
#X connect 0 0 2 0;
#X connect 1 0 0 0;
#X connect 2 0 5 0;
#X connect 3 0 12 0;
#X connect 3 0 13 0;
#X connect 3 0 14 0;
#X connect 3 0 15 0;
#X connect 3 0 16 0;
#X connect 3 0 17 0;
#X connect 3 0 18 0;
#X connect 3 0 19 0;
#X connect 4 0 2 0;
#X connect 5 0 3 0;
#X connect 5 1 6 0;
#X connect 6 0 10 0;
#X connect 6 1 11 0;
#X connect 7 0 8 0;
#X connect 9 0 7 0;
#X connect 10 0 9 0;
#X connect 11 0 9 0;
#X restore 703 22 pd prog1;
#X text 704 119 TODO clock to akai;
#X obj 163 24 vsl 15 128 0 127 0 0 empty ctlin_1_2_1 empty 0 -9 0 10
-262144 -1 -1 0 1;
#X obj 183 24 vsl 15 128 0 127 0 0 empty ctlin_1_3_1 empty 0 -9 0 10
-262144 -1 -1 0 1;
#X obj 203 24 vsl 15 128 0 127 0 0 empty ctlin_1_4_1 empty 0 -9 0 10
-262144 -1 -1 0 1;
#X obj 223 24 vsl 15 128 0 127 0 0 empty ctlin_1_5_1 empty 0 -9 0 10
-262144 -1 -1 0 1;
#X obj 243 24 vsl 15 128 0 127 0 0 empty ctlin_1_6_1 empty 0 -9 0 10
-262144 -1 -1 0 1;
#X obj 263 24 vsl 15 128 0 127 0 0 empty ctlin_1_7_1 empty 0 -9 0 10
-262144 -1 -1 0 1;
#X obj 283 24 vsl 15 128 0 127 0 0 empty ctlin_1_8_1 empty 0 -9 0 10
-262144 -1 -1 0 1;
#X obj 303 24 vsl 15 128 0 127 0 0 empty ctlin_2_1_1 empty 0 -9 0 10
-262144 -1 -1 0 1;
#X obj 323 24 vsl 15 128 0 127 0 0 empty ctlin_2_2_1 empty 0 -9 0 10
-262144 -1 -1 0 1;
#X obj 343 24 vsl 15 128 0 127 0 0 empty ctlin_2_3_1 empty 0 -9 0 10
-262144 -1 -1 0 1;
#X obj 363 24 vsl 15 128 0 127 0 0 empty ctlin_2_4_1 empty 0 -9 0 10
-262144 -1 -1 0 1;
#X obj 383 24 vsl 15 128 0 127 0 0 empty ctlin_2_5_1 empty 0 -9 0 10
-262144 -1 -1 0 1;
#X obj 403 24 vsl 15 128 0 127 0 0 empty ctlin_2_6_1 empty 0 -9 0 10
-262144 -1 -1 0 1;
#X obj 423 24 vsl 15 128 0 127 0 0 empty ctlin_2_7_1 empty 0 -9 0 10
-262144 -1 -1 0 1;
#X obj 443 24 vsl 15 128 0 127 0 0 empty ctlin_2_8_1 empty 0 -9 0 10
-262144 -1 -1 0 1;
#X obj 543 304 vsl 15 128 0 127 0 0 empty ctlin_3_1_1 empty 0 -9 0
10 -262144 -1 -1 0 1;
#X obj 563 304 vsl 15 128 0 127 0 0 empty ctlin_3_2_1 empty 0 -9 0
10 -262144 -1 -1 0 1;
#X obj 583 304 vsl 15 128 0 127 0 0 empty ctlin_3_3_1 empty 0 -9 0
10 -262144 -1 -1 0 1;
#X obj 603 304 vsl 15 128 0 127 0 0 empty ctlin_3_4_1 empty 0 -9 0
10 -262144 -1 -1 0 1;
#X obj 623 304 vsl 15 128 0 127 0 0 empty ctlin_3_5_1 empty 0 -9 0
10 -262144 -1 -1 0 1;
#X obj 643 304 vsl 15 128 0 127 0 0 empty ctlin_3_6_1 empty 0 -9 0
10 -262144 -1 -1 0 1;
#X obj 663 304 vsl 15 128 0 127 0 0 empty ctlin_3_7_1 empty 0 -9 0
10 -262144 -1 -1 0 1;
#X obj 683 304 vsl 15 128 0 127 0 0 empty ctlin_3_8_1 empty 0 -9 0
10 -262144 -1 -1 0 1;
#X obj 543 444 vsl 15 128 0 127 0 0 empty ctlin_4_1_1 empty 0 -9 0
10 -262144 -1 -1 0 1;
#X obj 563 444 vsl 15 128 0 127 0 0 empty ctlin_4_2_1 empty 0 -9 0
10 -262144 -1 -1 0 1;
#X obj 583 444 vsl 15 128 0 127 0 0 empty ctlin_4_3_1 empty 0 -9 0
10 -262144 -1 -1 0 1;
#X obj 603 444 vsl 15 128 0 127 0 0 empty ctlin_4_4_1 empty 0 -9 0
10 -262144 -1 -1 0 1;
#X obj 623 444 vsl 15 128 0 127 0 0 empty ctlin_4_5_1 empty 0 -9 0
10 -262144 -1 -1 0 1;
#X obj 643 444 vsl 15 128 0 127 0 0 empty ctlin_4_6_1 empty 0 -9 0
10 -262144 -1 -1 0 1;
#X obj 663 444 vsl 15 128 0 127 0 0 empty ctlin_4_7_1 empty 0 -9 0
10 -262144 -1 -1 0 1;
#X obj 683 444 vsl 15 128 0 127 0 0 empty ctlin_4_8_1 empty 0 -9 0
10 -262144 -1 -1 0 1;
#X obj 33 36 notein 1;
#X floatatom 33 58 5 0 0 0 - - -, f 5;
#X floatatom 86 58 5 0 0 0 - - -, f 5;
#X obj 33 99 pack 0 0 0;
#X obj 33 77 poly 1 1;
#X obj 33 121 route 1;
#X obj 103 363 brute, f 50;
#X obj 103 385 dac~;
#X text 705 104 TODO mikibrute LFO;
#X obj 705 184 midiclockout;
#X floatatom 786 165 5 0 0 0 bpm - -, f 5;
#X obj 786 144 + 60;
#X obj 705 140 loadbang;
#X msg 705 162 1;
#N canvas 341 461 450 300 init_touchosc 0;
#X msg 13 78 listen 8000;
#X obj 13 120 netreceive -u -b;
#X obj 13 142 oscparse;
#X msg 20 99 listen 0;
#X obj 13 17 loadbang;
#X msg 149 78 connect 192.168.3.2 9000;
#X obj 143 120 netsend -u -b;
#X msg 150 99 disconnect;
#X obj 143 35 list prepend send;
#X obj 143 57 list trim;
#X obj 13 164 route list;
#X obj 143 13 r osc-out;
#X obj 13 186 s osc-in;
#X obj 20 58 bng 15 250 50 0 empty empty disconnect 17 7 0 10 -262144
-1 -1;
#X connect 0 0 1 0;
#X connect 1 0 2 0;
#X connect 2 0 10 0;
#X connect 3 0 1 0;
#X connect 4 0 0 0;
#X connect 4 0 5 0;
#X connect 5 0 6 0;
#X connect 7 0 6 0;
#X connect 8 0 9 0;
#X connect 9 0 6 0;
#X connect 10 0 12 0;
#X connect 11 0 8 0;
#X connect 13 0 3 0;
#X connect 13 0 7 0;
#X restore 703 64 pd init_touchosc;
#X obj 526 33 r attack;
#X floatatom 526 55 5 0 0 0 - - -, f 5;
#X connect 1 0 41 1;
#X connect 4 0 41 2;
#X connect 5 0 41 3;
#X connect 6 0 41 4;
#X connect 7 0 41 5;
#X connect 8 0 41 6;
#X connect 9 0 41 7;
#X connect 10 0 41 8;
#X connect 11 0 41 9;
#X connect 12 0 41 10;
#X connect 13 0 41 11;
#X connect 14 0 41 12;
#X connect 15 0 41 13;
#X connect 16 0 41 14;
#X connect 17 0 41 15;
#X connect 18 0 41 16;
#X connect 19 0 41 17;
#X connect 35 0 36 0;
#X connect 35 1 37 0;
#X connect 36 0 39 0;
#X connect 37 0 39 1;
#X connect 38 0 40 0;
#X connect 39 0 38 0;
#X connect 39 1 38 1;
#X connect 39 2 38 2;
#X connect 40 0 41 0;
#X connect 41 0 42 0;
#X connect 41 0 42 1;
#X connect 45 0 44 1;
#X connect 46 0 45 0;
#X connect 47 0 48 0;
#X connect 48 0 44 0;
#X connect 50 0 51 0;
