#N canvas 1 23 1133 744 10;
#N canvas 0 51 450 300 init_akai 0;
#X obj 10 14 loadbang;
#X msg 10 36 midi-dialog 1 0 0 0 0 0 0 0 0 1 0 0 0 0 0 0 0 0 2 2;
#X obj 10 58 s pd;
#X connect 0 0 1 0;
#X connect 1 0 2 0;
#X restore 6 28 pd init_akai;
#N canvas 364 46 915 622 prog1 1;
#X floatatom 182 31 5 0 0 0 - - -, f 5;
#X obj 182 9 pgmin 1;
#X obj 112 31 f 1;
#X obj 112 85 makefilename ctlin_%s;
#X obj 112 9 loadbang;
#X obj 112 53 t f f;
#X obj 264 108 oscformat /knob8/title;
#X obj 264 130 s osc-out;
#X obj 264 86 cyclone/tosymbol;
#X obj 12 202 akaictlin 1 1 1 1-osc-sub-amt 1;
#X obj 12 226 akaictlin 1 2 1 1-osc-saw-amt 2;
#X obj 12 250 akaictlin 1 3 1 1-osc-sq-amt 3;
#X obj 12 274 akaictlin 1 4 1 1-osc-tri-amt 4;
#X obj 12 298 akaictlin 1 5 1 1-osc-noise-amt 5;
#X obj 12 322 akaictlin 1 6 1 1-osc-sub-type 6;
#X obj 12 346 akaictlin 1 7 1 1-osc-sub-oct 7;
#X obj 12 370 akaictlin 1 8 1 1-osc-sq-pw 8;
#X obj 12 394 akaictlin 2 1 1 1-f-env-atk 1;
#X obj 12 418 akaictlin 2 2 1 1-f-env-dcy 2;
#X obj 12 442 akaictlin 2 3 1 1-f-env-sus 3;
#X obj 12 466 akaictlin 2 4 1 1-f-env-rel 4;
#X obj 12 538 akaictlin 2 7 1 1-f-env-amt 7;
#X obj 12 562 akaictlin 2 8 1 1-f-key-trk 8;
#X obj 12 490 akaictlin 2 5 1 1-f-freq 5;
#X obj 12 514 akaictlin 2 6 1 1-f-res 6;
#X obj 222 202 akaictlin 3 1 1 1-vca-env-atk 1;
#X obj 222 226 akaictlin 3 2 1 1-vca-env-dcy 2;
#X obj 222 250 akaictlin 3 3 1 1-vca-env-sus 3;
#X obj 222 274 akaictlin 3 4 1 1-vca-env-rel 4;
#X obj 222 298 akaictlin 3 5 1 1-f-env-spd 5;
#X obj 222 394 akaictlin 4 1 1 1-lfo-rate 1;
#X obj 222 418 akaictlin 4 2 1 1-lfo-wave 2;
#X obj 222 442 akaictlin 4 3 1 1-lfo-pwm-amt 3;
#X obj 222 466 akaictlin 4 4 1 1-lfo-vco-amt 4;
#X obj 222 490 akaictlin 4 5 1 1-lfo-pitch-amt 5;
#X obj 222 514 akaictlin 4 6 1 1-lfo-filter-amt 6;
#X obj 222 538 akaictlin 4 7 1 n/a 7;
#X obj 222 322 akaictlin 3 6 1 brute-lvl 6;
#X msg 264 31 Brute VCO;
#X msg 312 51 Brute VCF;
#X msg 360 31 Brute VCA;
#X msg 409 51 Brute LFO;
#X obj 264 9 sel 1 2 3 4 5 6 7 8, f 65;
#X obj 432 202 akaictlin 5 1 1 2-vco-freq-r 1;
#X obj 432 226 akaictlin 5 2 1 2-vco-pwm-r 2;
#X obj 432 250 akaictlin 5 3 1 2-vco-wave-r 3;
#X obj 432 465 akaictlin 6 4 1 2-filter-mod-type-r 4;
#X obj 432 513 akaictlin 6 6 1 2-glide-r 6;
#X obj 432 274 akaictlin 5 4 1 2-osc-mod-amt-r 4;
#X obj 432 393 akaictlin 6 1 1 2-vcf-freq-r 1;
#X obj 432 298 akaictlin 5 5 1 2-osc-mod-type-r 5;
#X obj 432 417 akaictlin 6 2 1 2-vcf-q-r 2;
#X obj 432 322 akaictlin 5 6 1 2-osc-mod-dest-r 6;
#X obj 432 441 akaictlin 6 3 1 2-vcf-envon-r 3;
#X obj 432 346 akaictlin 5 7 1 2-lfo-rate-r 7;
#X obj 432 489 akaictlin 6 5 1 2-filter-mod-amt-r 5;
#X obj 432 370 akaictlin 5 8 1 2-lfo-wave-r 8;
#X obj 432 537 akaictlin 6 7 1 2-env-attack-r 7;
#X obj 432 561 akaictlin 6 8 1 2-env-decay-r 8;
#X msg 457 31 WS2 VCO;
#X msg 506 51 WS2 VCF/LFO;
#X msg 554 31 WS3 VCO;
#X msg 603 51 WS3 VCF/LFO;
#X obj 222 562 akaictlin 4 8 1 globalbpm 8;
#X obj 222 346 akaictlin 3 7 1 ws2-lvl 7;
#X obj 222 370 akaictlin 3 8 1 ws3-lvl 8;
#X obj 662 202 akaictlin 7 1 1 3-vco-freq-r 1;
#X obj 662 226 akaictlin 7 2 1 3-vco-pwm-r 2;
#X obj 662 250 akaictlin 7 3 1 3-vco-wave-r 3;
#X obj 662 274 akaictlin 7 4 1 3-osc-mod-amt-r 4;
#X obj 662 298 akaictlin 7 5 1 3-osc-mod-type-r 5;
#X obj 662 322 akaictlin 7 6 1 3-osc-mod-dest-r 6;
#X obj 662 346 akaictlin 7 7 1 3-lfo-rate-r 7;
#X obj 662 370 akaictlin 7 8 1 3-lfo-wave-r 8;
#X obj 662 393 akaictlin 8 1 1 3-vcf-freq-r 1;
#X obj 662 417 akaictlin 8 2 1 3-vcf-q-r 2;
#X obj 662 441 akaictlin 8 3 1 3-vcf-envon-r 3;
#X obj 662 465 akaictlin 8 4 1 3-filter-mod-type-r 4;
#X obj 662 489 akaictlin 8 5 1 3-filter-mod-amt-r 5;
#X obj 662 513 akaictlin 8 6 1 3-glide-r 6;
#X obj 662 537 akaictlin 8 7 1 3-env-attack-r 7;
#X obj 662 561 akaictlin 8 8 1 3-env-decay-r 8;
#X connect 0 0 2 0;
#X connect 1 0 0 0;
#X connect 2 0 5 0;
#X connect 4 0 2 0;
#X connect 5 0 3 0;
#X connect 5 1 42 0;
#X connect 6 0 7 0;
#X connect 8 0 6 0;
#X connect 38 0 8 0;
#X connect 39 0 8 0;
#X connect 40 0 8 0;
#X connect 41 0 8 0;
#X connect 42 0 38 0;
#X connect 42 1 39 0;
#X connect 42 2 40 0;
#X connect 42 3 41 0;
#X connect 42 4 59 0;
#X connect 42 5 60 0;
#X connect 42 6 61 0;
#X connect 42 7 62 0;
#X connect 59 0 8 0;
#X connect 60 0 8 0;
#X connect 61 0 8 0;
#X connect 62 0 8 0;
#X restore 6 7 pd prog1;
#X obj 323 17 notein 1;
#X floatatom 323 39 5 0 0 0 - - -, f 5;
#X floatatom 368 39 5 0 0 0 - - -, f 5;
#X obj 323 80 pack 0 0 0;
#X obj 323 102 route 1;
#X obj 125 88 midiclockout;
#X floatatom 194 69 5 0 0 0 bpm - -, f 5;
#X obj 194 48 + 60;
#X obj 125 44 loadbang;
#X msg 125 66 1;
#N canvas 523 316 450 300 init_touchosc 0;
#X msg 13 78 listen 8000;
#X obj 13 120 netreceive -u -b;
#X obj 13 142 oscparse;
#X msg 20 99 listen 0;
#X obj 13 17 loadbang;
#X msg 149 78 connect 192.168.3.2 9000;
#X obj 143 120 netsend -u -b;
#X msg 150 99 disconnect;
#X obj 143 35 list prepend send;
#X obj 143 57 list trim;
#X obj 13 164 route list;
#X obj 143 13 r osc-out;
#X obj 13 186 s osc-in;
#X obj 20 58 bng 15 250 50 0 empty empty disconnect 17 7 0 10 -262144
-1 -1;
#X connect 0 0 1 0;
#X connect 1 0 2 0;
#X connect 2 0 10 0;
#X connect 3 0 1 0;
#X connect 4 0 0 0;
#X connect 4 0 5 0;
#X connect 5 0 6 0;
#X connect 7 0 6 0;
#X connect 8 0 9 0;
#X connect 9 0 6 0;
#X connect 10 0 12 0;
#X connect 11 0 8 0;
#X connect 13 0 3 0;
#X connect 13 0 7 0;
#X restore 6 49 pd init_touchosc;
#X obj 194 5 r globalbpm;
#X obj 194 27 * 127;
#X msg 125 110 \; pd dsp 1 \;;
#X obj 323 58 poly 1 1;
#X obj 9 220 brutegui 1;
#X obj 333 125 tgl 15 0 empty empty send_test_notes 17 7 0 10 -262144
-1 -1 0 1;
#N canvas 37 244 450 300 testnote 0;
#X obj 13 18 inlet tgl;
#X obj 12 145 pack f f;
#X obj 12 118 makenote 64 500;
#X obj 12 52 metro 1 60 permin;
#X obj 12 74 random 12;
#X obj 12 96 + 60;
#X obj 12 167 outlet note;
#X connect 0 0 3 0;
#X connect 1 0 6 0;
#X connect 2 0 1 0;
#X connect 2 1 1 1;
#X connect 3 0 4 0;
#X connect 4 0 5 0;
#X connect 5 0 2 0;
#X restore 323 145 pd testnote;
#X obj 448 140 werkstattgui 2;
#X obj 62 175 ctlin 20 1;
#X obj 323 167 s notes;
#X obj 9 175 r notes;
#X obj 9 196 spigot 1;
#X obj 448 96 r notes;
#X obj 448 117 spigot;
#X obj 501 96 ctlin 21 1;
#X obj 9 708 s~ brute1;
#X obj 448 375 s~ ws2;
#X obj 836 15 r~ brute1;
#X obj 909 14 r~ ws2;
#X obj 971 13 r~ ws3;
#X obj 448 397 r notes;
#X obj 448 418 spigot;
#X obj 501 397 ctlin 22 1;
#X obj 448 676 s~ ws3;
#X obj 836 95 +~;
#X obj 836 117 dac~;
#X obj 869 43 r brute-lvl;
#X obj 836 67 *~ 0.5;
#X obj 909 67 *~ 0.5;
#X obj 942 43 r ws2-lvl;
#X obj 971 67 *~ 0.5;
#X obj 1004 43 r ws3-lvl;
#X obj 448 441 werkstattgui 3;
#X connect 2 0 3 0;
#X connect 2 1 4 0;
#X connect 3 0 16 0;
#X connect 4 0 16 1;
#X connect 5 0 6 0;
#X connect 6 0 22 0;
#X connect 8 0 7 1;
#X connect 9 0 8 0;
#X connect 10 0 11 0;
#X connect 10 0 15 0;
#X connect 11 0 7 0;
#X connect 13 0 14 0;
#X connect 14 0 9 0;
#X connect 16 0 5 0;
#X connect 16 1 5 1;
#X connect 16 2 5 2;
#X connect 17 0 28 0;
#X connect 18 0 19 0;
#X connect 19 0 22 0;
#X connect 20 0 29 0;
#X connect 21 0 24 1;
#X connect 23 0 24 0;
#X connect 24 0 17 0;
#X connect 25 0 26 0;
#X connect 26 0 20 0;
#X connect 27 0 26 1;
#X connect 30 0 40 0;
#X connect 31 0 41 0;
#X connect 32 0 43 0;
#X connect 33 0 34 0;
#X connect 34 0 45 0;
#X connect 35 0 34 1;
#X connect 37 0 38 0;
#X connect 37 0 38 1;
#X connect 39 0 40 1;
#X connect 40 0 37 0;
#X connect 41 0 37 0;
#X connect 42 0 41 1;
#X connect 43 0 37 0;
#X connect 44 0 43 1;
#X connect 45 0 36 0;
