#N canvas 343 66 919 432 10;
#N canvas 0 51 450 300 init_akai 0;
#X obj 10 14 loadbang;
#X msg 10 36 midi-dialog 1 0 0 0 0 0 0 0 0 1 0 0 0 0 0 0 0 0 2 2;
#X obj 10 58 s pd;
#X connect 0 0 1 0;
#X connect 1 0 2 0;
#X restore 168 9 pd init_akai;
#X obj 543 24 vsl 15 128 0 127 0 0 empty akaictlin_1_1 empty 0 -9 0
10 -262144 -1 -1 6400 1;
#X obj 563 24 vsl 15 128 0 127 0 0 empty akaictlin_2_1 empty 0 -9 0
10 -262144 -1 -1 6400 1;
#X obj 583 24 vsl 15 128 0 127 0 0 empty akaictlin_3_1 empty 0 -9 0
10 -262144 -1 -1 6400 1;
#X obj 603 24 vsl 15 128 0 127 0 0 empty akaictlin_4_1 empty 0 -9 0
10 -262144 -1 -1 6400 1;
#X obj 623 24 vsl 15 128 0 127 0 0 empty akaictlin_5_1 empty 0 -9 0
10 -262144 -1 -1 6400 1;
#X obj 643 24 vsl 15 128 0 127 0 0 empty akaictlin_6_1 empty 0 -9 0
10 -262144 -1 -1 6400 1;
#X obj 663 24 vsl 15 128 0 127 0 0 empty akaictlin_7_1 empty 0 -9 0
10 -262144 -1 -1 6400 1;
#X obj 683 24 vsl 15 128 0 127 0 0 empty akaictlin_8_1 empty 0 -9 0
10 -262144 -1 -1 6400 1;
#N canvas 0 51 450 300 prog1 0;
#X obj 11 15 akaictlin 1 1;
#X obj 11 37 s akaictlin_1_1;
#X obj 11 59 akaictlin 2 1;
#X obj 11 81 s akaictlin_2_1;
#X obj 11 103 akaictlin 3 1;
#X obj 11 125 s akaictlin_3_1;
#X obj 11 147 akaictlin 4 1;
#X obj 11 169 s akaictlin_4_1;
#X obj 156 15 akaictlin 5 1;
#X obj 156 37 s akaictlin_5_1;
#X obj 156 59 akaictlin 6 1;
#X obj 156 81 s akaictlin_6_1;
#X obj 156 103 akaictlin 7 1;
#X obj 156 125 s akaictlin_7_1;
#X obj 156 147 akaictlin 8 1;
#X obj 156 169 s akaictlin_8_1;
#X connect 0 0 1 0;
#X connect 2 0 3 0;
#X connect 4 0 5 0;
#X connect 6 0 7 0;
#X connect 8 0 9 0;
#X connect 10 0 11 0;
#X connect 12 0 13 0;
#X connect 14 0 15 0;
#X restore 703 22 pd prog1;
