#N canvas 0 51 1136 718 10;
#N canvas 0 51 450 300 init_akai 0;
#X obj 10 14 loadbang;
#X msg 10 36 midi-dialog 1 0 0 0 0 0 0 0 0 1 0 0 0 0 0 0 0 0 2 2;
#X obj 10 58 s pd;
#X connect 0 0 1 0;
#X connect 1 0 2 0;
#X restore 6 28 pd init_akai;
#N canvas 202 51 915 622 prog1 1;
#X floatatom 182 31 5 0 0 0 - - -, f 5;
#X obj 182 9 pgmin 1;
#X obj 112 31 f 1;
#X obj 112 85 makefilename ctlin_%s;
#X obj 112 9 loadbang;
#X obj 112 53 t f f;
#X obj 264 108 oscformat /knob8/title;
#X obj 264 130 s osc-out;
#X obj 264 86 cyclone/tosymbol;
#X msg 264 31 Brute VCO;
#X msg 312 51 Brute VCF;
#X msg 360 31 Brute VCA;
#X msg 409 51 Brute LFO;
#X obj 264 9 sel 1 2 3 4 5 6 7 8, f 65;
#X msg 457 31 WS2 VCO;
#X msg 506 51 WS2 VCF/LFO;
#X msg 554 31 WS3 VCO;
#X msg 603 51 WS3 VCF/LFO;
#X obj 872 561 akaictlin 10 8 1 3-env-decay-r 8;
#X obj 872 537 akaictlin 10 7 1 3-env-attack-r 7;
#X obj 872 513 akaictlin 10 6 1 3-glide-r 6;
#X obj 872 489 akaictlin 10 5 1 3-filter-mod-amt-r 5;
#X obj 872 465 akaictlin 10 4 1 3-filter-mod-type-r 4;
#X obj 872 441 akaictlin 10 3 1 3-vcf-envon-r 3;
#X obj 872 417 akaictlin 10 2 1 3-vcf-q-r 2;
#X obj 872 393 akaictlin 10 1 1 3-vcf-freq-r 1;
#X obj 872 370 akaictlin 9 8 1 3-lfo-wave-r 8;
#X obj 872 346 akaictlin 9 7 1 3-lfo-rate-r 7;
#X obj 872 322 akaictlin 9 6 1 3-osc-mod-dest-r 6;
#X obj 872 298 akaictlin 9 5 1 3-osc-mod-type-r 5;
#X obj 872 274 akaictlin 9 4 1 3-osc-mod-amt-r 4;
#X obj 872 250 akaictlin 9 3 1 3-vco-wave-r 3;
#X obj 872 226 akaictlin 9 2 1 3-vco-pwm-r 2;
#X obj 872 202 akaictlin 9 1 1 3-vco-freq-r 1;
#X obj 642 561 akaictlin 8 8 1 2-env-decay-r 8;
#X obj 642 537 akaictlin 8 7 1 2-env-attack-r 7;
#X obj 642 514 akaictlin 8 6 1 2-glide-r 6;
#X obj 642 489 akaictlin 8 5 1 2-filter-mod-amt-r 5;
#X obj 642 465 akaictlin 8 4 1 2-filter-mod-type-r 4;
#X obj 642 441 akaictlin 8 3 1 2-vcf-envon-r 3;
#X obj 642 417 akaictlin 8 2 1 2-vcf-q-r 2;
#X obj 642 393 akaictlin 8 1 1 2-vcf-freq-r 1;
#X obj 642 370 akaictlin 7 8 1 2-lfo-wave-r 8;
#X obj 642 346 akaictlin 7 7 1 2-lfo-rate-r 7;
#X obj 642 322 akaictlin 7 6 1 2-osc-mod-dest-r 6;
#X obj 642 298 akaictlin 7 5 1 2-osc-mod-type-r 5;
#X obj 642 274 akaictlin 7 4 1 2-osc-mod-amt-r 4;
#X obj 642 250 akaictlin 7 3 1 2-vco-wave-r 3;
#X obj 642 226 akaictlin 7 2 1 2-vco-pwm-r 2;
#X obj 642 202 akaictlin 7 1 1 2-vco-freq-r 1;
#X obj 432 538 akaictlin 6 7 1 n/a 7;
#X obj 432 514 akaictlin 6 6 1 1-lfo-filter-amt 6;
#X obj 432 490 akaictlin 6 5 1 1-lfo-pitch-amt 5;
#X obj 432 466 akaictlin 6 4 1 1-lfo-vco-amt 4;
#X obj 432 442 akaictlin 6 3 1 1-lfo-pwm-amt 3;
#X obj 432 418 akaictlin 6 2 1 1-lfo-wave 2;
#X obj 432 394 akaictlin 6 1 1 1-lfo-rate 1;
#X obj 432 298 akaictlin 5 5 1 1-f-env-spd 5;
#X obj 432 274 akaictlin 5 4 1 1-vca-env-rel 4;
#X obj 432 250 akaictlin 5 3 1 1-vca-env-sus 3;
#X obj 432 226 akaictlin 5 2 1 1-vca-env-dcy 2;
#X obj 432 202 akaictlin 5 1 1 1-vca-env-atk 1;
#X obj 222 562 akaictlin 4 8 1 1-f-key-trk 8;
#X obj 222 538 akaictlin 4 7 1 1-f-env-amt 7;
#X obj 222 514 akaictlin 4 6 1 1-f-res 6;
#X obj 222 490 akaictlin 4 5 1 1-f-freq 5;
#X obj 222 466 akaictlin 4 4 1 1-f-env-rel 4;
#X obj 222 442 akaictlin 4 3 1 1-f-env-sus 3;
#X obj 222 418 akaictlin 4 2 1 1-f-env-dcy 2;
#X obj 222 394 akaictlin 4 1 1 1-f-env-atk 1;
#X obj 222 370 akaictlin 3 8 1 1-osc-sq-pw 8;
#X obj 222 346 akaictlin 3 7 1 1-osc-sub-oct 7;
#X obj 222 322 akaictlin 3 6 1 1-osc-sub-type 6;
#X obj 222 298 akaictlin 3 5 1 1-osc-noise-amt 5;
#X obj 222 274 akaictlin 3 4 1 1-osc-tri-amt 4;
#X obj 222 250 akaictlin 3 3 1 1-osc-sq-amt 3;
#X obj 222 226 akaictlin 3 2 1 1-osc-saw-amt 2;
#X obj 222 202 akaictlin 3 1 1 1-osc-sub-amt 1;
#X obj 12 202 akaictlin 1 1 1 brute-lvl 1;
#X obj 12 226 akaictlin 1 2 1 ws2-lvl 2;
#X obj 12 250 akaictlin 1 3 1 ws3-lvl 3;
#X obj 12 274 akaictlin 1 4 1 looper1-lvl 4;
#X obj 12 298 akaictlin 1 5 1 looper2-lvl 5;
#X obj 12 322 akaictlin 1 6 1 looper3-lvl 6;
#X obj 12 346 akaictlin 1 7 1 looper4-lvl 7;
#X obj 432 562 akaictlin 6 8 1 n/a 8;
#X obj 12 370 akaictlin 1 8 1 globalbpm 8;
#X obj 12 394 akaictlin 2 1 1 n/a 1;
#X obj 12 418 akaictlin 2 2 1 n/a 2;
#X obj 12 442 akaictlin 2 3 1 n/a 3;
#X obj 12 466 akaictlin 2 4 1 n/a 4;
#X obj 12 490 akaictlin 2 5 1 n/a 5;
#X obj 12 514 akaictlin 2 6 1 n/a 6;
#X obj 12 538 akaictlin 2 7 1 n/a 7;
#X obj 12 562 akaictlin 2 8 1 n/a 8;
#X obj 432 322 akaictlin 5 6 1 n/a 6;
#X obj 432 346 akaictlin 5 7 1 n/a 7;
#X obj 432 370 akaictlin 5 8 1 n/a 8;
#X connect 0 0 2 0;
#X connect 1 0 0 0;
#X connect 2 0 5 0;
#X connect 4 0 2 0;
#X connect 5 0 3 0;
#X connect 5 1 13 0;
#X connect 6 0 7 0;
#X connect 8 0 6 0;
#X connect 9 0 8 0;
#X connect 10 0 8 0;
#X connect 11 0 8 0;
#X connect 12 0 8 0;
#X connect 13 0 9 0;
#X connect 13 1 10 0;
#X connect 13 2 11 0;
#X connect 13 3 12 0;
#X connect 13 4 14 0;
#X connect 13 5 15 0;
#X connect 13 6 16 0;
#X connect 13 7 17 0;
#X connect 14 0 8 0;
#X connect 15 0 8 0;
#X connect 16 0 8 0;
#X connect 17 0 8 0;
#X restore 6 7 pd prog1;
#X obj 283 5 notein 1;
#X floatatom 283 27 5 0 0 0 - - -, f 5;
#X floatatom 328 27 5 0 0 0 - - -, f 5;
#X obj 283 69 pack 0 0 0;
#X obj 283 91 route 1;
#X obj 125 88 midiclockout;
#X floatatom 194 69 5 0 0 0 bpm - -, f 5;
#X obj 194 48 + 60;
#X obj 125 44 loadbang;
#X msg 125 66 1;
#N canvas 583 227 450 300 init_touchosc 1;
#X msg 13 78 listen 8000;
#X obj 13 120 netreceive -u -b;
#X obj 13 142 oscparse;
#X msg 20 99 listen 0;
#X obj 13 17 loadbang;
#X msg 199 78 connect 192.168.3.2 9000;
#X obj 193 150 netsend -u -b;
#X msg 200 129 disconnect;
#X obj 193 35 list prepend send;
#X obj 193 57 list trim;
#X obj 13 164 route list;
#X obj 193 13 r osc-out;
#X obj 13 186 s osc-in;
#X obj 20 58 bng 15 250 50 0 empty empty disconnect 17 7 0 10 -262144
-1 -1;
#X msg 209 98 connect 192.168.43.1 9000;
#X msg 135 200 it work!;
#X obj 135 242 oscformat /conf/ip;
#X obj 135 264 s osc-out;
#X obj 135 64 t b b;
#X obj 135 222 cyclone/tosymbol;
#X connect 0 0 1 0;
#X connect 1 0 2 0;
#X connect 2 0 10 0;
#X connect 3 0 1 0;
#X connect 4 0 0 0;
#X connect 4 0 18 0;
#X connect 5 0 6 0;
#X connect 7 0 6 0;
#X connect 8 0 9 0;
#X connect 9 0 6 0;
#X connect 10 0 12 0;
#X connect 11 0 8 0;
#X connect 13 0 3 0;
#X connect 13 0 7 0;
#X connect 14 0 6 0;
#X connect 15 0 19 0;
#X connect 16 0 17 0;
#X connect 18 0 15 0;
#X connect 18 1 14 0;
#X connect 19 0 16 0;
#X restore 6 49 pd init_touchosc;
#X obj 194 5 r globalbpm;
#X obj 194 27 * 127;
#X msg 125 110 \; pd dsp 1 \;;
#X obj 283 47 poly 1 1;
#X obj 293 114 tgl 15 0 empty empty send_test_notes 17 7 0 10 -262144
-1 -1 0 1;
#N canvas 37 244 450 300 testnote 0;
#X obj 13 18 inlet tgl;
#X obj 12 145 pack f f;
#X obj 12 118 makenote 64 500;
#X obj 12 52 metro 1 60 permin;
#X obj 12 74 random 12;
#X obj 12 96 + 60;
#X obj 12 167 outlet note;
#X connect 0 0 3 0;
#X connect 1 0 6 0;
#X connect 2 0 1 0;
#X connect 2 1 1 1;
#X connect 3 0 4 0;
#X connect 4 0 5 0;
#X connect 5 0 2 0;
#X restore 293 134 pd testnote;
#X obj 443 170 werkstattgui 2;
#X obj 65 175 ctlin 20 1;
#X obj 283 156 s notes;
#X obj 9 175 r notes;
#X obj 9 196 spigot 1;
#X obj 443 126 r notes;
#X obj 443 147 spigot;
#X obj 496 126 ctlin 21 1;
#X obj 9 708 s~ brute1;
#X obj 443 405 s~ ws2;
#X obj 443 427 r notes;
#X obj 443 448 spigot;
#X obj 496 427 ctlin 22 1;
#X obj 443 706 s~ ws3;
#X obj 9 218 brutegui 1;
#X obj 65 196 tgl 15 0 empty empty empty 17 7 0 10 -262144 -1 -1 0
1;
#X obj 161 197 bng 15 250 50 0 tick empty empty 17 7 0 10 -262144 -1
-1;
#X obj 241 47 / 60;
#X obj 241 69 t b f;
#X msg 241 91 1000;
#X floatatom 241 135 5 0 0 0 - - -, f 5;
#X obj 161 175 metro 1000;
#X obj 241 113 / 60;
#X obj 496 148 tgl 15 0 empty empty empty 17 7 0 10 -262144 -1 -1 0
1;
#X obj 496 449 tgl 15 0 empty empty empty 17 7 0 10 -262144 -1 -1 0
1;
#N canvas 378 95 711 553 mixer 0;
#X obj 21 39 hsl 128 15 0 1 0 0 empty brute-lvl brute_lvl -2 -8 0 10
-262144 -1 -1 12700 1;
#X obj 21 69 hsl 128 15 0 1 0 0 empty ws2-lvl ws2_lvl -2 -8 0 10 -262144
-1 -1 0 1;
#X obj 21 99 hsl 128 15 0 1 0 0 empty ws3-lvl ws3_lvl -2 -8 0 10 -262144
-1 -1 0 1;
#X obj 21 129 hsl 128 15 0 1 0 0 empty looper1-lvl looper1_lvl -2 -8
0 10 -262144 -1 -1 0 1;
#X obj 21 159 hsl 128 15 0 1 0 0 empty looper2-lvl looper2_lvl -2 -8
0 10 -262144 -1 -1 0 1;
#X obj 21 189 hsl 128 15 0 1 0 0 empty looper3-lvl looper3_lvl -2 -8
0 10 -262144 -1 -1 0 1;
#X obj 21 219 hsl 128 15 0 1 0 0 empty looper4-lvl looper4_lvl -2 -8
0 10 -262144 -1 -1 0 1;
#X obj 176 267 outlet~;
#X obj 176 15 r~ brute1;
#X obj 244 15 r~ ws2;
#X obj 294 15 r~ ws3;
#X obj 176 245 +~;
#X obj 244 84 *~ 0.5;
#X obj 294 114 *~ 0.5;
#X obj 176 54 *~ 0.5;
#X obj 344 144 *~ 0.5;
#X obj 404 174 *~ 0.5;
#X obj 371 261 s~ loop;
#X obj 344 15 r~ l1-out;
#X obj 404 15 r~ l2-out;
#X obj 464 204 *~ 0.5;
#X obj 524 234 *~ 0.5;
#X obj 464 15 r~ l3-out;
#X obj 524 15 r~ l4-out;
#X obj 21 373 looper~;
#X obj 40 298 ctlin 24 1;
#X obj 40 320 tgl 15 0 empty empty empty 17 7 0 10 -262144 -1 -1 0
1;
#X obj 130 320 tgl 15 0 empty empty empty 17 7 0 10 -262144 -1 -1 0
1;
#X obj 130 298 ctlin 25 1;
#X obj 40 440 tgl 15 0 empty empty empty 17 7 0 10 -262144 -1 -1 0
1;
#X obj 130 440 tgl 15 0 empty empty empty 17 7 0 10 -262144 -1 -1 0
1;
#X obj 40 418 ctlin 26 1;
#X obj 130 418 ctlin 27 1;
#X obj 21 347 r tick;
#X obj 111 347 r tick;
#X obj 21 467 r tick;
#X obj 111 467 r tick;
#X obj 21 395 s~ l1-out;
#X obj 111 395 s~ l2-out;
#X obj 60 320 r~ loop;
#X obj 150 320 r~ loop;
#X obj 60 440 r~ loop;
#X obj 150 440 r~ loop;
#X obj 111 515 s~ l4-out;
#X obj 21 515 s~ l3-out;
#X obj 620 13 loadbang;
#X obj 620 57 s brute-lvl;
#X msg 620 35 1;
#X obj 111 373 looper~;
#X obj 21 493 looper~;
#X obj 111 493 looper~;
#X connect 0 0 14 1;
#X connect 1 0 12 1;
#X connect 2 0 13 1;
#X connect 3 0 15 1;
#X connect 4 0 16 1;
#X connect 5 0 20 1;
#X connect 6 0 21 1;
#X connect 8 0 14 0;
#X connect 9 0 12 0;
#X connect 10 0 13 0;
#X connect 11 0 7 0;
#X connect 12 0 11 0;
#X connect 12 0 17 0;
#X connect 13 0 11 0;
#X connect 13 0 17 0;
#X connect 14 0 11 0;
#X connect 14 0 17 0;
#X connect 15 0 11 0;
#X connect 15 0 17 0;
#X connect 16 0 11 0;
#X connect 18 0 15 0;
#X connect 19 0 16 0;
#X connect 20 0 11 0;
#X connect 21 0 11 0;
#X connect 22 0 20 0;
#X connect 23 0 21 0;
#X connect 24 0 37 0;
#X connect 25 0 26 0;
#X connect 26 0 24 1;
#X connect 27 0 48 1;
#X connect 28 0 27 0;
#X connect 29 0 49 1;
#X connect 30 0 50 1;
#X connect 31 0 29 0;
#X connect 32 0 30 0;
#X connect 33 0 24 0;
#X connect 34 0 48 0;
#X connect 35 0 49 0;
#X connect 36 0 50 0;
#X connect 39 0 24 2;
#X connect 40 0 48 2;
#X connect 41 0 49 2;
#X connect 42 0 50 2;
#X connect 45 0 47 0;
#X connect 47 0 46 0;
#X connect 48 0 38 0;
#X connect 49 0 44 0;
#X connect 50 0 43 0;
#X coords 0 -1 1 1 150 230 1 10 10;
#X restore 783 170 pd mixer;
#X obj 783 405 dac~;
#X obj 443 471 werkstattgui 3;
#X connect 2 0 3 0;
#X connect 2 1 4 0;
#X connect 3 0 16 0;
#X connect 4 0 16 1;
#X connect 5 0 6 0;
#X connect 6 0 21 0;
#X connect 8 0 7 1;
#X connect 8 0 36 0;
#X connect 9 0 8 0;
#X connect 10 0 11 0;
#X connect 10 0 15 0;
#X connect 11 0 7 0;
#X connect 11 0 40 0;
#X connect 13 0 14 0;
#X connect 14 0 9 0;
#X connect 16 0 5 0;
#X connect 16 1 5 1;
#X connect 16 2 5 2;
#X connect 17 0 18 0;
#X connect 18 0 21 0;
#X connect 19 0 28 0;
#X connect 20 0 34 0;
#X connect 22 0 23 0;
#X connect 23 0 33 0;
#X connect 24 0 25 0;
#X connect 25 0 19 0;
#X connect 26 0 42 0;
#X connect 29 0 30 0;
#X connect 30 0 46 0;
#X connect 31 0 43 0;
#X connect 33 0 27 0;
#X connect 34 0 23 1;
#X connect 36 0 37 0;
#X connect 37 0 38 0;
#X connect 37 1 41 1;
#X connect 38 0 41 0;
#X connect 39 0 40 1;
#X connect 40 0 35 0;
#X connect 41 0 39 0;
#X connect 42 0 25 1;
#X connect 43 0 30 1;
#X connect 44 0 45 0;
#X connect 44 0 45 1;
#X connect 46 0 32 0;
