#N canvas 431 341 450 300 10;
#X obj 211 93 tgl 15 0 empty empty empty 17 7 0 10 -262144 -1 -1 1
1;
#X obj 211 217 midiout;
#X obj 102 120 select 0 1;
#X msg 102 154 252;
#X msg 139 154 250;
#X msg 211 147 248;
#X obj 211 117 metro 20.8333;
#X floatatom 309 89 5 0 0 0 - - -, f 5;
#X obj 266 64 expr (60000/$f1/24);
#X floatatom 264 41 5 0 0 0 - - -, f 5;
#X text 207 40 BPM-->;
#X obj 160 17 inlet toggle;
#X obj 264 17 inlet bpm;
#X connect 0 0 2 0;
#X connect 0 0 6 0;
#X connect 2 0 3 0;
#X connect 2 1 4 0;
#X connect 3 0 1 0;
#X connect 4 0 1 0;
#X connect 5 0 1 0;
#X connect 6 0 5 0;
#X connect 7 0 6 1;
#X connect 8 0 7 0;
#X connect 9 0 8 0;
#X connect 11 0 0 0;
#X connect 12 0 9 0;
