#N canvas 24 142 650 301 12;
#X obj 9 20 inlet midi;
#X obj 9 80 phasor~;
#X obj 111 140 osc~;
#X obj 9 170 outlet~ saw;
#X obj 111 170 outlet~ sine;
#X obj 9 110 *~ 2;
#X obj 9 140 -~ 1;
#X obj 221 170 outlet~ square;
#X obj 221 110 *~ 2;
#X obj 221 140 -~ 1;
#X obj 221 80 expr~ $v1 > $f2;
#X obj 338 49 inlet pwm;
#X obj 347 140 noise~;
#X obj 347 170 outlet~ noise;
#X connect 0 0 1 0;
#X connect 0 0 2 0;
#X connect 1 0 5 0;
#X connect 1 0 10 0;
#X connect 2 0 4 0;
#X connect 5 0 6 0;
#X connect 6 0 3 0;
#X connect 8 0 9 0;
#X connect 9 0 7 0;
#X connect 10 0 8 0;
#X connect 11 0 10 1;
#X connect 12 0 13 0;
