#N canvas 132 70 675 378 12;
#X obj 123 23 inlet~ signal;
#X obj 19 31 vsl 20 70 20 22000 0 0 \$0-f \$0-f-r f 7 7 0 10 -262144
-1 -1 0 1;
#X obj 241 23 inlet freq;
#X obj 345 23 inlet q;
#X obj 39 31 vsl 20 70 0 6 0 0 \$0-q \$0-q-r q 7 7 0 10 -262144 -1
-1 0 1;
#X obj 241 113 s \$0-f-r;
#X obj 241 53 * 21980;
#X obj 241 83 + 20;
#X obj 137 57 r \$0-f;
#X obj 345 82 s \$0-q-r;
#X obj 152 147 r \$0-q;
#X obj 481 68 loadbang;
#X msg 481 98 oversample 2;
#X obj 123 207 bob~;
#X obj 123 237 outlet~;
#X obj 137 117 line~;
#X obj 152 177 line~;
#X obj 137 87 pack 0 50;
#X msg 481 121 saturation 300;
#X obj 345 52 * 6;
#X connect 0 0 13 0;
#X connect 2 0 6 0;
#X connect 3 0 19 0;
#X connect 6 0 7 0;
#X connect 7 0 5 0;
#X connect 8 0 17 0;
#X connect 10 0 16 0;
#X connect 11 0 12 0;
#X connect 11 0 18 0;
#X connect 12 0 13 0;
#X connect 13 0 14 0;
#X connect 15 0 13 1;
#X connect 16 0 13 2;
#X connect 17 0 15 0;
#X connect 18 0 13 0;
#X connect 19 0 9 0;
#X coords 0 -1 1 1 60 98 1 10 10;
