#N canvas 49 23 1031 639 12;
#X obj 118 332 sel 0, f 7;
#X msg 118 357 stop;
#X obj 208 474 pack 1 0;
#X obj 208 569 line~;
#X obj 208 594 outlet~;
#X obj 330 413 delay;
#X obj 367 388 + 1;
#X obj 78 474 pack 0 0;
#X obj 330 491 pack 0 0 0;
#X obj 330 516 route 0;
#X text 78 453 Release;
#X text 203 453 Attack;
#X text 335 468 Decay;
#X obj 212 243 s \$0-a;
#X obj 322 242 s \$0-d;
#X obj 424 102 s \$0-s;
#X obj 542 242 s \$0-r;
#X obj 367 363 r \$0-a;
#X obj 139 431 r \$0-r;
#X obj 368 439 r \$0-s;
#X obj 407 465 r \$0-d;
#X obj 212 77 inlet attack;
#X obj 322 77 inlet decay;
#X obj 424 77 inlet sustain;
#X obj 542 77 inlet release;
#X text 114 45 fast mode: a \, d \, r 1ms - 1s slow mode: a \, d \,
t 10ms-10s;
#X obj 660 77 inlet speedmode;
#X obj 118 77 inlet gate;
#X obj 269 443 r \$0-a;
#X obj 660 102 hradio 15 1 0 2 empty empty empty 0 -8 0 10 -262144
-1 -1 0;
#X obj 660 122 route 0;
#X obj 171 357 t b b;
#X obj 212 148 * 999;
#X obj 212 198 + 1;
#X msg 697 177 999;
#X msg 726 207 1;
#X msg 750 177 9990;
#X msg 779 207 10;
#X floatatom 212 102 5 0 0 0 - - -, f 5;
#X floatatom 322 102 5 0 0 0 - - -, f 5;
#X floatatom 542 102 5 0 0 0 - - -, f 5;
#X floatatom 212 222 5 0 0 0 - - -, f 5;
#X floatatom 322 221 5 0 0 0 - - -, f 5;
#X floatatom 542 221 5 0 0 0 - - -, f 5;
#X obj 322 148 * 999;
#X obj 322 197 + 1;
#X obj 542 149 * 999;
#X obj 542 197 + 1;
#X obj 660 147 t b b;
#X obj 713 146 t b b;
#X obj 226 124 r \$0-scale;
#X obj 226 173 r \$0-offset;
#X obj 336 124 r \$0-scale;
#X obj 336 173 r \$0-offset;
#X obj 556 124 r \$0-scale;
#X obj 556 173 r \$0-offset;
#X obj 697 237 s \$0-scale;
#X obj 726 267 s \$0-offset;
#X connect 0 0 1 0;
#X connect 0 0 7 0;
#X connect 0 1 31 0;
#X connect 1 0 5 0;
#X connect 2 0 3 0;
#X connect 3 0 4 0;
#X connect 5 0 8 0;
#X connect 6 0 5 1;
#X connect 7 0 3 0;
#X connect 8 0 9 0;
#X connect 9 0 3 0;
#X connect 17 0 6 0;
#X connect 18 0 7 1;
#X connect 19 0 8 1;
#X connect 20 0 8 2;
#X connect 21 0 38 0;
#X connect 22 0 39 0;
#X connect 23 0 15 0;
#X connect 24 0 40 0;
#X connect 26 0 29 0;
#X connect 27 0 0 0;
#X connect 28 0 2 1;
#X connect 29 0 30 0;
#X connect 30 0 48 0;
#X connect 30 1 49 0;
#X connect 31 0 5 0;
#X connect 31 1 2 0;
#X connect 32 0 33 0;
#X connect 33 0 41 0;
#X connect 34 0 56 0;
#X connect 35 0 57 0;
#X connect 36 0 56 0;
#X connect 37 0 57 0;
#X connect 38 0 32 0;
#X connect 39 0 44 0;
#X connect 40 0 46 0;
#X connect 41 0 13 0;
#X connect 42 0 14 0;
#X connect 43 0 16 0;
#X connect 44 0 45 0;
#X connect 45 0 42 0;
#X connect 46 0 47 0;
#X connect 47 0 43 0;
#X connect 48 0 40 0;
#X connect 48 0 39 0;
#X connect 48 0 38 0;
#X connect 48 1 34 0;
#X connect 48 1 35 0;
#X connect 49 0 40 0;
#X connect 49 0 39 0;
#X connect 49 0 38 0;
#X connect 49 1 36 0;
#X connect 49 1 37 0;
#X connect 50 0 32 1;
#X connect 51 0 33 1;
#X connect 52 0 44 1;
#X connect 53 0 45 1;
#X connect 54 0 46 1;
#X connect 55 0 47 1;
