#N canvas 26 204 646 406 10;
#X msg 13 218 listen 8000;
#X obj 13 260 netreceive -u -b;
#X obj 13 282 oscparse;
#X msg 20 239 listen 0;
#X obj 13 157 loadbang;
#X msg 149 218 connect 192.168.3.2 9000;
#X obj 143 260 netsend -u -b;
#X msg 150 239 disconnect;
#X obj 143 175 list prepend send;
#X obj 143 197 list trim;
#X obj 13 304 route list;
#X obj 344 53 oscformat /knob8/r1;
#X msg 344 28 54;
#X obj 490 75 oscformat /knob8/l1;
#X obj 344 8 bng 15 250 50 0 empty empty empty 17 7 0 10 -262144 -1
-1;
#X msg 490 31 test;
#X obj 143 153 r osc-out;
#X obj 344 75 s osc-out;
#X obj 490 97 s osc-out;
#X obj 13 326 s osc-in;
#X obj 20 198 bng 15 250 50 0 empty empty disconnect 17 7 0 10 -262144
-1 -1;
#X obj 490 53 cyclone/tosymbol;
#X obj 190 53 oscformat /knob8/r1v;
#X msg 190 26 77;
#X obj 22 53 oscformat /knob8/title;
#X msg 22 6 peepee;
#X obj 22 28 cyclone/tosymbol;
#X connect 0 0 1 0;
#X connect 1 0 2 0;
#X connect 2 0 10 0;
#X connect 3 0 1 0;
#X connect 4 0 0 0;
#X connect 4 0 5 0;
#X connect 5 0 6 0;
#X connect 7 0 6 0;
#X connect 8 0 9 0;
#X connect 9 0 6 0;
#X connect 10 0 19 0;
#X connect 11 0 17 0;
#X connect 12 0 11 0;
#X connect 13 0 18 0;
#X connect 14 0 12 0;
#X connect 14 0 15 0;
#X connect 14 0 23 0;
#X connect 14 0 25 0;
#X connect 15 0 21 0;
#X connect 16 0 8 0;
#X connect 20 0 3 0;
#X connect 20 0 7 0;
#X connect 21 0 13 0;
#X connect 22 0 17 0;
#X connect 23 0 22 0;
#X connect 24 0 17 0;
#X connect 25 0 26 0;
#X connect 26 0 24 0;
