#N canvas 650 247 450 300 10;
#X obj 40 22 inlet;
#X obj 40 74 phasor~;
#X obj 156 25 loadbang;
#X msg 156 47 0;
#X obj 110 74 phasor~;
#X obj 110 47 * -1;
#X obj 40 96 *~ 2;
#X obj 40 118 -~ 1;
#X obj 40 140 clip~ 0 1;
#X obj 40 162 +~;
#X obj 110 96 *~ 2;
#X obj 110 118 -~ 1;
#X obj 110 140 clip~ 0 1;
#X obj 40 184 outlet~;
#X connect 0 0 1 0;
#X connect 0 0 5 0;
#X connect 1 0 6 0;
#X connect 2 0 3 0;
#X connect 3 0 1 1;
#X connect 3 0 4 1;
#X connect 4 0 10 0;
#X connect 5 0 4 0;
#X connect 6 0 7 0;
#X connect 7 0 8 0;
#X connect 8 0 9 0;
#X connect 9 0 13 0;
#X connect 10 0 11 0;
#X connect 11 0 12 0;
#X connect 12 0 9 0;
