#N canvas 633 23 594 642 12;
#X floatatom 20 45 5 0 0 0 - - -, f 5;
#X obj 137 342 f;
#X floatatom 193 45 5 0 0 0 - - -, f 5;
#X obj 20 392 <;
#X obj 59 392 ==;
#X obj 98 392 >;
#X obj 6 561 f;
#X obj 6 586 - 1;
#X obj 266 561 f;
#X obj 266 586 + 1;
#X obj 142 561 f;
#X obj 20 312 t f f f b, f 15;
#X obj 98 422 moses 1;
#X obj 20 482 moses 1;
#X obj 59 452 moses 1;
#X obj 73 512 bng 15 250 50 0 empty empty empty 17 7 0 10 -262144 -1
-1;
#X obj 112 482 bng 15 250 50 0 empty empty empty 17 7 0 10 -262144
-1 -1;
#X obj 151 452 bng 15 250 50 0 empty empty empty 17 7 0 10 -262144
-1 -1;
#X obj 172 126 f;
#X obj 135 102 t f b;
#X obj 135 153 -;
#X obj 135 178 abs;
#X obj 135 205 < 10;
#X obj 90 235 spigot;
#X obj 20 72 t f f f, f 18;
#X obj 65 205 == 0;
#X obj 20 235 spigot;
#X floatatom 361 60 5 0 0 0 old_value #0-old_value #0-old_value_s,
f 5;
#X obj 20 18 inlet in;
#X obj 193 15 r \$0-old_value_s;
#X obj 27 537 r \$0-old_value_s;
#X obj 287 537 r \$0-old_value_s;
#X obj 6 611 s \$0-old_value;
#X obj 142 611 s \$0-old_value;
#X obj 266 611 s \$0-old_value;
#X obj 158 312 r \$0-old_value_s;
#X obj 90 260 s \$0-old_value;
#X obj 431 67 f \$1;
#X obj 431 92 s \$0-old_value;
#X obj 431 17 inlet old;
#X obj 431 140 outlet;
#X obj 431 116 r \$0-old_value_s;
#X obj 439 42 loadbang;
#X connect 0 0 24 0;
#X connect 1 0 3 1;
#X connect 1 0 5 1;
#X connect 1 0 4 1;
#X connect 2 0 18 1;
#X connect 3 0 13 0;
#X connect 4 0 14 0;
#X connect 5 0 12 0;
#X connect 6 0 7 0;
#X connect 7 0 32 0;
#X connect 8 0 9 0;
#X connect 9 0 34 0;
#X connect 10 0 33 0;
#X connect 11 0 3 0;
#X connect 11 1 4 0;
#X connect 11 2 5 0;
#X connect 11 3 1 0;
#X connect 12 1 17 0;
#X connect 13 1 15 0;
#X connect 14 1 16 0;
#X connect 15 0 6 0;
#X connect 16 0 10 0;
#X connect 17 0 8 0;
#X connect 18 0 20 1;
#X connect 19 0 20 0;
#X connect 19 1 18 0;
#X connect 20 0 21 0;
#X connect 21 0 22 0;
#X connect 22 0 23 1;
#X connect 22 0 25 0;
#X connect 23 0 36 0;
#X connect 24 0 26 0;
#X connect 24 1 23 0;
#X connect 24 2 19 0;
#X connect 25 0 26 1;
#X connect 26 0 11 0;
#X connect 28 0 0 0;
#X connect 28 0 10 1;
#X connect 29 0 2 0;
#X connect 30 0 6 1;
#X connect 31 0 8 1;
#X connect 35 0 1 1;
#X connect 37 0 38 0;
#X connect 39 0 37 0;
#X connect 41 0 40 0;
#X connect 42 0 37 0;
