#N canvas 185 99 1057 612 10;
#X obj 434 56 stripnote;
#X obj 434 188 mtof;
#X obj 434 210 pack 0 0;
#X obj 434 232 line;
#N canvas 558 309 453 430 triangle 0;
#X obj 21 244 inlet freq;
#X obj 337 28 inlet toggle;
#X obj 21 266 sig~;
#X obj 21 288 +~;
#X obj 21 310 phasor~;
#X obj 21 332 -~ 0.5;
#X obj 21 354 outlet~;
#X obj 110 27 r~ \$1-lfo;
#X obj 110 89 *~;
#X obj 110 173 *~;
#X obj 110 245 *~;
#X obj 337 50 switch~;
#X obj 232 28 r~ \$1-env-gen;
#X obj 232 90 *~;
#X obj 232 174 *~;
#X obj 125 201 r \$1-osc-mod-amt;
#X obj 125 223 * 300;
#X obj 20 10 loadbang;
#X msg 20 32 1;
#X obj 125 154 tgl 15 0 empty empty empty 17 7 0 10 -262144 -1 -1 1
1;
#X obj 247 155 tgl 15 0 empty empty empty 17 7 0 10 -262144 -1 -1 1
1;
#X obj 125 48 r \$1-osc-mod-dest;
#X obj 247 112 r \$1-osc-mod-type;
#X obj 247 134 invert;
#X obj 125 70 tgl 15 0 empty empty empty 17 7 0 10 -262144 -1 -1 0
1;
#X obj 310 163 tgl 15 0 empty empty empty 17 7 0 10 -262144 -1 -1 0
1;
#X obj 310 185 metro 100;
#X obj 310 207 snapshot~;
#X floatatom 310 229 5 0 0 0 - - -, f 5;
#X connect 0 0 2 0;
#X connect 1 0 11 0;
#X connect 2 0 3 0;
#X connect 3 0 4 0;
#X connect 4 0 5 0;
#X connect 5 0 6 0;
#X connect 7 0 8 0;
#X connect 8 0 9 0;
#X connect 9 0 10 0;
#X connect 10 0 3 1;
#X connect 12 0 13 0;
#X connect 13 0 14 0;
#X connect 14 0 10 0;
#X connect 15 0 16 0;
#X connect 16 0 10 1;
#X connect 17 0 18 0;
#X connect 18 0 19 0;
#X connect 18 0 20 0;
#X connect 19 0 9 1;
#X connect 20 0 14 1;
#X connect 21 0 24 0;
#X connect 22 0 23 0;
#X connect 22 0 19 0;
#X connect 23 0 20 0;
#X connect 24 0 8 1;
#X connect 24 0 13 1;
#X connect 25 0 26 0;
#X connect 26 0 27 0;
#X connect 27 0 28 0;
#X restore 434 315 pd triangle;
#X obj 479 188 * 1000;
#X obj 497 232 r \$1-vco-wave;
#X obj 497 297 tgl 15 0 empty empty empty 17 7 0 10 -262144 -1 -1 1
1;
#N canvas 477 76 704 434 pulse 0;
#X obj 15 131 inlet freq;
#X obj 420 223 inlet pwm;
#X obj 602 4 inlet toggle;
#X obj 15 321 outlet~;
#X obj 15 153 sig~;
#X obj 95 5 r~ \$1-lfo;
#X obj 95 47 *~;
#X obj 95 153 *~;
#X obj 15 175 +~;
#X obj 602 26 switch~;
#X obj 110 26 r \$1-osc-mod-dest;
#X obj 231 4 r~ \$1-env-gen;
#X obj 231 46 *~;
#X obj 246 25 r \$1-osc-mod-dest;
#X obj 116 68 r \$1-osc-mod-type;
#X obj 110 110 r \$1-osc-mod-amt;
#X obj 110 132 * 300;
#X obj 252 67 invert;
#X obj 95 89 *~ 1;
#X obj 231 88 *~ 1;
#X obj 365 5 r~ \$1-lfo;
#X obj 365 47 *~;
#X obj 501 4 r~ \$1-env-gen;
#X obj 501 46 *~;
#X obj 380 27 invert;
#X obj 516 25 invert;
#X obj 365 89 *~;
#X obj 380 68 r \$1-osc-mod-type;
#X obj 501 88 *~;
#X obj 516 67 invert;
#X obj 365 153 *~;
#X obj 380 110 r \$1-osc-mod-amt;
#X obj 380 132 spigot;
#X obj 48 255 metro 20;
#X obj 48 277 snapshot~;
#X obj 423 245 hsl 128 15 0 1 0 0 empty empty empty -2 -8 0 10 -262144
-1 -1 0 1;
#X floatatom 420 265 5 0 0 0 - - -, f 5;
#X msg 420 201 0.35;
#X obj 420 174 sel 0;
#X msg 459 201 1;
#X msg 48 233 0;
#X obj 15 299 sqosc~;
#X connect 0 0 4 0;
#X connect 1 0 35 0;
#X connect 2 0 9 0;
#X connect 4 0 8 0;
#X connect 5 0 6 0;
#X connect 6 0 18 0;
#X connect 7 0 8 1;
#X connect 8 0 41 0;
#X connect 10 0 6 1;
#X connect 10 0 24 0;
#X connect 11 0 12 0;
#X connect 12 0 19 0;
#X connect 13 0 12 1;
#X connect 13 0 25 0;
#X connect 14 0 17 0;
#X connect 14 0 18 1;
#X connect 15 0 16 0;
#X connect 16 0 7 1;
#X connect 17 0 19 1;
#X connect 18 0 7 0;
#X connect 19 0 7 0;
#X connect 20 0 21 0;
#X connect 21 0 26 0;
#X connect 22 0 23 0;
#X connect 23 0 28 0;
#X connect 24 0 21 1;
#X connect 25 0 23 1;
#X connect 25 0 32 1;
#X connect 25 0 38 0;
#X connect 25 0 33 0;
#X connect 26 0 30 0;
#X connect 27 0 26 1;
#X connect 27 0 29 0;
#X connect 28 0 30 0;
#X connect 29 0 28 1;
#X connect 30 0 34 0;
#X connect 31 0 32 0;
#X connect 32 0 30 1;
#X connect 32 0 38 0;
#X connect 33 0 34 0;
#X connect 34 0 41 1;
#X connect 35 0 36 0;
#X connect 36 0 41 1;
#X connect 37 0 35 0;
#X connect 38 0 37 0;
#X connect 38 0 40 0;
#X connect 38 1 39 0;
#X connect 39 0 33 0;
#X connect 40 0 33 0;
#X connect 41 0 3 0;
#X restore 507 315 pd pulse;
#X obj 552 274 invert;
#X obj 552 296 tgl 15 0 empty empty empty 17 7 0 10 -262144 -1 -1 0
1;
#X obj 529 252 r \$1-vco-pwm;
#X obj 434 431 *~;
#X obj 434 144 +;
#X obj 449 78 r \$1-vco-freq;
#X obj 449 100 - 0.5;
#X obj 449 122 * 48;
#X obj 622 230 r \$1-vcf-envon;
#X obj 622 252 tgl 15 0 empty empty empty 17 7 0 10 -262144 -1 -1 1
1;
#X obj 622 272 sel 0;
#X msg 622 294 1;
#X msg 649 294 0;
#X obj 622 316 sig~;
#X obj 563 406 *~;
#X obj 758 57 r \$1-env-attack;
#X obj 764 188 r \$1-env-decay;
#X obj 764 210 * 3000;
#X obj 737 319 line~;
#X obj 737 80 bng 15 250 50 0 empty empty empty 17 7 0 10 -262144 -1
-1;
#X obj 737 166 delay;
#X obj 737 122 t f b f;
#X obj 737 298 pack f f;
#X msg 756 144 1;
#X obj 758 79 * 3000;
#X obj 737 254 t b f;
#X msg 737 276 0;
#X obj 737 232 f 300;
#X obj 737 100 f 30;
#X obj 757 341 s~ \$1-env-gen;
#X obj 829 371 r \$1-filter-mod-type;
#X obj 758 398 invert;
#X obj 758 420 tgl 15 0 empty empty empty 17 7 0 10 -262144 -1 -1 0
1;
#X obj 829 419 tgl 15 0 empty empty empty 17 7 0 10 -262144 -1 -1 1
1;
#X obj 737 444 *~ 1;
#X obj 808 444 *~ 1;
#X obj 808 398 r~ \$1-lfo;
#X obj 752 471 r \$1-filter-mod-amt;
#X obj 737 494 *~;
#N canvas 107 176 450 300 moogfilt 0;
#X obj 34 35 inlet~;
#X obj 322 35 inlet~;
#X obj 34 198 outlet~;
#X obj 34 176 bob~;
#X obj 174 35 inlet freq;
#X obj 248 35 inlet res;
#X obj 104 85 sig~ 1;
#X obj 104 107 *~ 2000;
#X obj 104 129 +~ 100;
#X obj 174 57 * 127;
#X obj 174 79 mtof;
#X obj 248 77 * 4;
#X floatatom 248 99 5 0 0 0 - - -, f 5;
#X obj 248 118 sig~ 3;
#X connect 0 0 3 0;
#X connect 1 0 7 0;
#X connect 3 0 2 0;
#X connect 4 0 9 0;
#X connect 5 0 11 0;
#X connect 6 0 7 0;
#X connect 7 0 8 0;
#X connect 8 0 3 1;
#X connect 9 0 10 0;
#X connect 10 0 7 1;
#X connect 11 0 12 0;
#X connect 12 0 13 0;
#X connect 13 0 3 2;
#X restore 434 540 pd moogfilt;
#X obj 455 498 r \$1-vcf-freq;
#X obj 476 519 r \$1-vcf-q;
#N canvas 822 133 450 300 lfo 0;
#X obj 58 32 r \$1-lfo-rate;
#X obj 189 30 r \$1-lfo-wave;
#X obj 58 54 * 200;
#X obj 58 76 phasor~ 0.5;
#X obj 58 98 -~ 0.5;
#X obj 58 192 *~;
#X obj 58 222 s~ \$1-lfo;
#X obj 174 76 phasor~ 0.5;
#X obj 174 98 expr~ $v1 > 0.5;
#X obj 174 120 -~ 0.5;
#X obj 174 192 *~;
#X obj 73 173 tgl 15 0 empty empty empty 17 7 0 10 -262144 -1 -1 0
1;
#X obj 189 173 tgl 15 0 empty empty empty 17 7 0 10 -262144 -1 -1 0
1;
#X obj 189 152 invert;
#X connect 0 0 2 0;
#X connect 1 0 11 0;
#X connect 1 0 13 0;
#X connect 2 0 3 0;
#X connect 2 0 7 0;
#X connect 3 0 4 0;
#X connect 4 0 5 0;
#X connect 5 0 6 0;
#X connect 7 0 8 0;
#X connect 8 0 9 0;
#X connect 9 0 10 0;
#X connect 10 0 6 0;
#X connect 11 0 5 1;
#X connect 12 0 10 1;
#X connect 13 0 12 0;
#X restore 16 295 pd lfo;
#X obj 479 166 r \$1-glide;
#X msg 13 4 0.5;
#X obj 16 62 hsl 128 15 0 1 0 0 \$1-vco-freq \$1-vco-freq-r vco_freq
-2 -8 0 10 -262144 -1 -1 0 1;
#X obj 16 92 hsl 128 15 0 1 0 0 \$1-vco-pwm \$1-vco-pwm-r vco_pwm -2
-8 0 10 -262144 -1 -1 0 1;
#X obj 149 62 vradio 15 1 0 2 \$1-vco-wave \$1-vco-wave-r sq/tr 0 -8
0 10 -262144 -1 -1 1;
#X obj 68 47 bng 15 250 50 0 empty empty vco_reset 17 7 0 10 -262144
-1 -1;
#X obj 186 62 hsl 128 15 0 1 0 0 \$1-vcf-freq \$1-vcf-freq-r vcf_freq
-2 -8 0 10 -262144 -1 -1 0 1;
#X obj 186 92 hsl 128 15 0 1 0 0 \$1-vcf-q \$1-vcf-q-r vcf_q -2 -8
0 10 -262144 -1 -1 0 1;
#X obj 319 62 vradio 15 1 0 2 \$1-vcf-envon \$1-vcf-envon-r vca_on/eg
-35 -8 0 10 -262144 -1 -1 1;
#X obj 186 122 hsl 128 15 0 1 0 0 \$1-filter-mod-amt \$1-filter-mod-amt-r
filter_mod_amt -2 -8 0 10 -262144 -1 -1 0 1;
#X obj 183 152 hradio 15 1 0 2 \$1-filter-mod-type \$1-filter-mod-type-r
eg/lfo 0 -8 0 10 -262144 -1 -1 1;
#X obj 223 152 hradio 15 1 0 2 empty empty +/- 0 -8 0 10 -262144 -1
-1 0;
#X obj 186 182 hsl 128 15 0 1 0 0 \$1-env-attack \$1-env-attack-r env_attack
-2 -8 0 10 -262144 -1 -1 0 1;
#X obj 186 212 hsl 128 15 0 1 0 0 \$1-env-decay \$1-env-decay-r env_decay
-2 -8 0 10 -262144 -1 -1 0 1;
#X obj 350 129 loadbang;
#X msg 350 151 1;
#X obj 16 122 hsl 128 15 0 1 0 0 \$1-osc-mod-amt \$1-osc-mod-amt-r
osc_mod_amt -2 -8 0 10 -262144 -1 -1 0 1;
#X obj 13 152 hradio 15 1 0 2 \$1-osc-mod-type \$1-osc-mod-type-r type_eg/lfo
0 -8 0 10 -262144 -1 -1 1;
#X obj 83 152 hradio 15 1 0 2 \$1-osc-mod-dest \$1-osc-mod-dest-r dest_pwm/freq
0 -8 0 10 -262144 -1 -1 1;
#X obj 16 182 hsl 128 15 0 1 0 0 \$1-lfo-rate \$1-lfo-rate-r lfo_rate
-2 -8 0 10 -262144 -1 -1 0 1;
#X obj 16 212 hsl 128 15 0 1 0 0 \$1-glide \$1-glide-r glide -2 -8
0 10 -262144 -1 -1 0 1;
#X obj 13 239 hradio 15 1 0 2 \$1-lfo-wave \$1-lfo-wave-r sq/tri 0
-8 0 10 -262144 -1 -1 1;
#X obj 434 34 unpack f f;
#X obj 434 13 inlet note;
#X obj 434 562 outlet~;
#X connect 0 0 13 0;
#X connect 1 0 2 0;
#X connect 2 0 3 0;
#X connect 3 0 4 0;
#X connect 3 0 8 0;
#X connect 4 0 12 0;
#X connect 5 0 2 1;
#X connect 6 0 7 0;
#X connect 6 0 9 0;
#X connect 7 0 4 1;
#X connect 8 0 12 0;
#X connect 9 0 10 0;
#X connect 10 0 8 2;
#X connect 11 0 8 1;
#X connect 12 0 48 0;
#X connect 13 0 1 0;
#X connect 13 0 28 0;
#X connect 14 0 15 0;
#X connect 15 0 16 0;
#X connect 16 0 13 1;
#X connect 17 0 18 0;
#X connect 18 0 19 0;
#X connect 18 0 23 1;
#X connect 19 0 20 0;
#X connect 19 1 21 0;
#X connect 20 0 22 0;
#X connect 21 0 22 0;
#X connect 22 0 12 1;
#X connect 23 0 12 1;
#X connect 24 0 33 0;
#X connect 25 0 26 0;
#X connect 26 0 36 1;
#X connect 27 0 38 0;
#X connect 27 0 23 0;
#X connect 27 0 43 0;
#X connect 28 0 37 0;
#X connect 29 0 36 0;
#X connect 30 0 29 0;
#X connect 30 1 32 0;
#X connect 30 2 31 1;
#X connect 31 0 27 0;
#X connect 32 0 31 0;
#X connect 33 0 37 1;
#X connect 34 0 35 0;
#X connect 34 1 31 1;
#X connect 35 0 31 0;
#X connect 36 0 34 0;
#X connect 37 0 30 0;
#X connect 39 0 40 0;
#X connect 39 0 42 0;
#X connect 40 0 41 0;
#X connect 41 0 43 1;
#X connect 42 0 44 1;
#X connect 43 0 47 0;
#X connect 44 0 47 0;
#X connect 45 0 44 0;
#X connect 46 0 47 1;
#X connect 47 0 48 3;
#X connect 48 0 76 0;
#X connect 49 0 48 1;
#X connect 50 0 48 2;
#X connect 52 0 5 0;
#X connect 53 0 54 0;
#X connect 57 0 53 0;
#X connect 66 0 67 0;
#X connect 67 0 60 0;
#X connect 67 0 56 0;
#X connect 67 0 62 0;
#X connect 74 0 0 0;
#X connect 74 1 0 1;
#X connect 75 0 74 0;
#X coords 0 -1 1 1 330 230 1 10 30;
